<svg xmlns="http://www.w3.org/2000/svg" height="40" viewBox="0 96 960 960" width="40"><path d="m605.949 914.46-251.231-88.462-168.768 66.205q-16.205 7.513-31.077-2.102-14.872-9.616-14.872-27.898V338.668q0-11.846 6.347-21.27 6.346-9.423 17.397-13.653l190.973-66.205 251.231 87.795 168.101-65.948q16.205-7.103 31.077 1.73 14.872 8.833 14.872 26.731v529.997q0 11.154-6.923 19.436-6.924 8.282-17.693 12.103L605.949 914.46Zm-27.282-62.152v-486l-197.334-67.795v486l197.334 67.795Zm50.255 0 140.822-46.462V313.179l-140.822 53.129v486Zm-438.666-14.154 140.822-53.641v-486l-140.822 47.231v492.41Zm438.666-471.846v486-486Zm-297.844-67.795v486-486Z"/></svg>