<svg xmlns="http://www.w3.org/2000/svg" height="40" viewBox="0 96 960 960" width="40"><path d="M454.873 983.998v-66.922q-130.949-12.847-217.026-98.923-86.076-86.077-98.923-217.026H72.002v-50.254h66.922q12.847-130.949 98.923-217.026 86.077-86.076 217.026-99.179v-66.666h50.254v66.666q130.949 13.103 217.026 99.179 86.076 86.077 99.179 217.026h66.666v50.254h-66.666q-13.103 130.949-99.179 217.026-86.077 86.076-217.026 98.923v66.922h-50.254ZM480 867.641q120.462 0 206.051-85.59 85.59-85.589 85.59-206.051 0-120.462-85.59-206.051-85.589-85.59-206.051-85.59-120.462 0-206.051 85.59-85.59 85.589-85.59 206.051 0 120.462 85.59 206.051 85.589 85.59 206.051 85.59Zm0-156.514q-56.262 0-95.694-39.433-39.433-39.432-39.433-95.694t39.433-95.694q39.432-39.433 95.694-39.433t95.694 39.433q39.433 39.432 39.433 95.694t-39.433 95.694Q536.262 711.127 480 711.127Z"/></svg>