<svg width="512" height="512" viewBox="0 0 512 512" fill="none" xmlns="http://www.w3.org/2000/svg">
<g clip-path="url(#clip0_1601_464)">
<path d="M301.776 200.002C302.71 200.299 303.606 200.703 304.445 201.206C300.83 204.794 312.183 207.659 308.011 210.38C288.798 222.829 282.563 238.335 281.52 261.282C281.059 273.514 279.094 285.361 282.321 297.4C291.806 331.832 301.728 352.443 334.817 366.216C345.733 371.032 361.065 383.216 373 383.24C351.301 403.048 324.904 417.082 296.268 424.035C267.632 430.988 237.688 430.633 209.228 423.004C180.767 415.375 154.714 400.72 133.498 380.404C112.281 360.088 96.5901 334.772 87.8871 306.815C87.9004 306.687 87.9004 306.557 87.8871 306.429C87.7658 306.14 87.6445 305.851 87.5475 305.563C87.4504 305.274 87.3776 304.985 87.3049 304.696C86.7766 302.542 86.9377 300.278 87.7658 298.219C103.364 264.364 125.124 235.831 157.485 216.761C181.526 202.555 207.749 196.053 235.113 194.368C257.528 192.947 279.774 195.813 301.776 200.002Z" fill="#706FB3"/>
<path d="M254.456 82C289.683 81.9994 324.086 92.5992 353.142 112.406C382.198 132.213 404.548 160.3 417.253 192.975C429.958 225.65 432.424 261.383 424.326 295.477C416.228 329.572 397.946 360.432 371.883 384C357.948 382.973 344.254 379.826 331.278 374.67C314.919 367.875 300.331 357.464 288.621 344.227C276.911 330.99 268.385 315.274 263.692 298.272C260.444 286.218 260.807 273.899 261.268 261.652C262.262 238.702 272.152 221.103 291.352 208.615C292.744 207.718 294.194 206.913 295.691 206.204L297.485 205.336C299.898 204.279 302.112 202.819 304.03 201.021C305.703 200.563 308.297 201.937 308.879 199.864C309.461 197.79 307.012 196.826 305.727 195.645C289.157 180.454 268.701 170.095 246.602 165.703C214.619 159.127 181.387 162.251 151.21 174.671C124.152 185.562 100.916 204.134 84.3999 228.07C84.0121 228.697 83.5272 229.227 82.8727 230.095C82.4881 229.703 82.1908 229.235 82 228.721C82.2424 227.178 82.5091 225.611 82.7757 224.068C90.1824 184.166 111.412 148.105 142.775 122.151C174.139 96.1974 213.654 81.9909 254.456 82Z" fill="#22BAE6"/>
</g>
<defs>
<clipPath id="clip0_1601_464">
<rect width="512" height="512" fill="transparent"/>
</clipPath>
</defs>
</svg>
