<svg width="110" height="110" viewBox="0 0 110 110" fill="none" xmlns="http://www.w3.org/2000/svg">
<path d="M49.2575 81.6146C62.4251 90.4926 83.0626 93.5801 102.311 82.986C90.456 103.045 66.5853 114.06 42.6617 108.561C13.0748 101.755 -5.3934 72.2512 1.41046 42.6603C7.98845 14.0594 35.7773 -4.15007 64.3467 0.813952C64.3467 0.813952 75.5528 2.76334 81.3214 12.6793C83.4851 16.2499 85.2154 20.4033 86.3423 25.0902L86.3659 25.1995C87.7137 31.4658 87.7429 38.1245 86.2105 44.7814C83.8495 55.0644 78.0463 64.6863 70.4966 69.8441L70.4504 69.8873C73.0709 67.1743 75.0036 63.7403 75.9119 59.797C78.5732 48.2383 71.3587 36.7125 59.7991 34.0575C48.2394 31.3993 36.7148 38.6164 34.0583 50.1705C33.2895 53.5199 33.1906 56.8414 33.8211 59.954C33.8211 59.954 35.8462 72.9997 49.2575 81.6146Z" fill="#1476C6"/>
<path d="M44.5596 73.8541C49.5004 76.6132 55.4366 77.86 55.4366 77.86C68.9176 80.9608 82.4438 77.5822 92.7068 69.8787L92.7764 69.8207C97.353 66.5843 101.409 62.4415 104.649 57.4606C106.731 54.2723 108.364 50.9169 109.56 47.4774C111.077 61.1915 108.183 68.9472 108.183 68.9472C104.389 73.4629 100.419 76.22 100.419 76.22C90.2024 83.7791 76.9879 86.7531 63.6292 83.6746C63.6292 83.6746 52.0751 81.2478 44.5596 73.8541Z" fill="#21B5B0"/>
<path d="M58.052 76.2488C79.1228 77.9406 98.8984 62.6614 103.793 43.4186C103.793 43.4186 105.268 37.3496 105.313 32.8593C105.313 32.8593 100.928 21.3609 89.0035 11.7479C93.6263 20.8429 95.2071 31.5549 92.7359 42.2786C89.0035 58.53 76.9067 70.6969 62.0439 75.2796C60.7878 75.6667 59.3944 76.0113 58.0288 76.2227L58.052 76.2488Z" fill="#21B5B0"/>
</svg>
