<svg width="102" height="80" viewBox="0 0 102 80" fill="none" xmlns="http://www.w3.org/2000/svg">
<path d="M0 61.1196L32.628 9.72245L37.2142 17.6137L11.0901 58.4536C11.0901 58.4536 1.70637 60.2652 0 61.1196Z" fill="#008837"/>
<path d="M49.5829 3.21849L14.8218 57.8137C14.8218 57.8137 20.7928 57.28 21.8594 57.3878L52.7818 9.29641L49.5829 3.21849Z" fill="#008837"/>
<path d="M62.7484 -9.98229e-05L26.1748 58.1131C26.1748 58.1131 55.0719 56.8335 69.8929 59.3926C69.8929 59.3926 100.07 63.6581 92.0723 72.9341C92.0723 72.9341 88.6604 76.6667 76.7167 79.3311C76.7167 79.3311 98.4701 78.2653 101.562 67.9245C101.562 67.9245 102.841 64.7256 101.028 61.9526L62.7484 -9.98229e-05Z" fill="#008837"/>
<path d="M6.93018 78.1802H12.6018C16.9229 78.1802 18.034 73.919 18.034 70.963C18.034 68.3525 17.1231 64.3992 12.7104 64.3992H6.93018L6.93018 78.1802ZM9.61161 66.7779H12.2366C13.4033 66.7779 15.2456 67.1055 15.2456 71.1742C15.2456 73.4391 14.4981 75.7998 12.2725 75.7998H9.61161V66.7779Z" fill="#008837"/>
<path d="M22.1406 75.3386H26.9732L27.8114 78.1799H30.7828L26.1701 64.399H23.0156L18.3481 78.1799H21.2306L22.1406 75.3386ZM24.5475 67.5081H24.5834L26.2068 72.9582H22.8711L24.5475 67.5081Z" fill="#008837"/>
<path d="M42.1608 66.8363H35.2148V69.7341H41.5963V72.1726H35.2148V75.7419H42.4713V78.1804H32.5342V64.3986H42.1608V66.8363Z" fill="#008837"/>
<path d="M50.8406 70.752H56.3104V78.1804H54.4877L54.2149 76.4518C53.5204 77.2969 52.5179 78.5439 50.129 78.5439C46.9746 78.5439 44.1118 76.1636 44.1118 71.3276C44.1118 67.5642 46.0996 64.0146 50.5113 64.0343C54.5245 64.0343 56.1094 66.7781 56.2557 68.6787H53.5204C53.5204 68.1407 52.5915 66.4138 50.6585 66.4138C48.7075 66.4138 46.9027 67.8336 46.9027 71.3661C46.9027 75.1278 48.8537 76.1071 50.7123 76.1071C51.3153 76.1071 53.3194 75.8574 53.8864 73.075H50.8406V70.752Z" fill="#008837"/>
<path d="M69.3662 73.3631C69.3662 76.9897 67.2869 78.5447 63.9879 78.5447C62.7836 78.5447 60.996 78.2368 59.8302 76.8742C59.1194 76.0292 58.844 74.9164 58.8081 73.5342V64.3994H61.5973V73.3426C61.5973 75.2619 62.6553 76.107 63.9323 76.107C65.8106 76.107 66.577 75.1465 66.577 73.4769V64.3994H69.3662V73.3631Z" fill="#008837"/>
</svg>
