<svg width="165" height="64" viewBox="0 0 165 64" fill="none" xmlns="http://www.w3.org/2000/svg">
<path d="M104.249 0.173777C104.156 0.0952877 104.057 0.0344354 103.936 0.0168429C103.461 -0.0819458 102.99 0.26176 102.27 0.835546L101.714 1.25236C99.752 2.29574 98.2539 7.19455 97.921 9.20686C97.8615 9.23663 97.8168 9.26509 97.7126 9.31787C96.5042 7.2406 94.3051 5.30674 92.0059 5.01443C92.918 8.49504 95.9831 19.0113 100.062 18.1006C102.134 17.6364 106.459 8.9173 106.502 4.11049C106.502 4.04688 106.502 3.99004 106.502 3.9332C106.47 1.39041 105.295 0.483676 104.249 0.173777Z" fill="#F47216"/>
<path d="M131.756 53.7239C126.641 53.9377 124.944 53.663 119.932 55.3086C119.231 55.521 118.624 55.9879 118.06 56.6266C118.141 57.6808 117.509 59.3508 118.491 59.7473C118.543 59.7527 118.537 59.911 118.586 59.9976C118.876 60.2886 119.177 60.3305 119.47 60.7027C119.658 60.9693 119.815 60.6743 120.012 60.7839C120.107 60.8786 120.154 61.0478 120.253 61.064C120.744 61.2954 121.198 61.2061 121.685 61.4443C121.934 61.6432 122.182 61.6013 122.429 61.6391C122.578 61.581 122.772 61.9301 122.822 62.018C123.754 62.4078 124.611 62.0573 125.553 62.0424C128.39 61.9991 127.857 61.719 130.692 61.673C133.082 61.6391 135.408 62.0045 137.794 61.9666C139.087 61.9233 140.494 61.9667 141.784 61.8774C144.069 61.742 146.359 62.0952 148.648 62.1209C149.792 62.0952 151.121 62.5418 152.274 62.6284C153.519 62.6284 154.695 62.3158 155.958 62.5648C156.352 62.5986 156.752 62.5391 157.158 62.7272C157.524 62.9139 157.938 63.0993 158.281 63.1277C159.387 63.2062 160.355 62.7948 161.421 62.3929C162.056 62.2021 162.696 62.0925 163.272 61.7285C163.562 61.5959 163.835 61.1344 163.946 60.6634C164.244 59.8095 164.482 58.869 164.171 57.896C164.115 57.8919 163.967 57.9637 163.916 57.8771C163.806 57.7147 163.835 57.3182 163.676 57.3047C163.217 57.1193 162.769 57.0813 162.313 56.9744C161.704 56.8458 161.088 56.563 160.483 56.4466C157.649 55.7605 141.454 53.3193 131.756 53.7239Z" fill="#0DAC7D"/>
<path d="M82.2477 55.594C82.7633 55.7077 83.3479 55.6982 83.6267 56.0379C83.9054 56.3058 83.3533 56.7471 83.3858 57.1016C83.375 57.9447 83.693 58.7052 83.6822 59.5497C83.6984 59.689 83.6267 59.8271 83.467 59.9786C83.3208 60.1911 83.0881 60.4144 82.8499 60.5605C82.1367 61.0139 81.2003 60.838 80.3761 61.0775C79.3206 61.4009 78.1554 61.5173 77.0809 61.631C75.0889 61.8367 73.2051 61.4158 71.1888 61.3549C70.4269 61.3129 69.6014 61.4158 68.9545 61.6526C68.0505 61.8935 67.129 61.8583 66.2006 61.8258C61.4114 61.6526 56.7115 61.5525 51.9399 61.589C51.1049 61.6228 50.1901 61.7284 49.3538 61.7596C45.5199 61.9734 41.6943 61.9071 37.8577 62.0072C36.518 62.0424 35.1837 62.0789 33.8412 62.0451C33.0888 62.0627 32.335 62.0789 31.6692 62.0952C28.8355 62.24 25.9246 62.3739 23.076 62.2562C21.9906 62.2657 20.8241 62.2778 19.7334 62.2873C16.5654 62.4538 13.3365 62.9761 10.1455 62.7948C7.79754 62.6703 5.59441 62.1317 3.44 61.0274C1.97441 60.2696 0.829555 59.2235 0 57.9636C0.548074 57.2531 1.37221 56.9703 2.28026 56.7511C4.41301 56.1692 6.40231 55.7984 8.54995 55.4357C10.3728 55.1299 12.0373 54.981 13.7871 54.824C36.744 52.7711 62.4615 53.5357 72.4933 54.2069C75.867 54.4329 79.0053 54.8768 82.2477 55.594Z" fill="#2B78C6"/>
<path d="M123.659 34.1462C123.659 34.2747 123.659 34.2748 123.659 34.4074C123.862 34.9298 124.269 35.0651 124.677 35.4549C125.092 35.4549 125.6 35.4549 126.008 35.4549C126.008 35.1923 126.315 35.4548 126.315 35.1923C126.623 35.1923 127.075 35.0651 127.294 34.6713C127.405 34.6713 127.405 34.6713 127.51 34.6713C127.732 34.2748 128.06 34.0068 128.498 34.0068C129.046 33.3532 129.59 32.6969 130.14 32.0419C130.14 31.7766 130.248 31.5168 130.465 31.3815C130.796 30.2042 131.013 28.8915 131.562 27.7047C131.562 27.3149 131.779 26.7884 131.673 26.3933C131.779 26.3933 131.887 26.3933 131.887 26.2634C131.779 25.7329 132.103 25.4731 132.325 25.2119C132.545 25.2119 132.76 25.2119 132.873 24.948C132.873 24.8168 132.873 24.8168 132.873 24.6882C133.417 24.6882 134.036 25.082 134.465 25.6017C134.754 25.6017 134.898 25.6017 135.186 25.6017C135.186 25.871 135.331 25.871 135.477 26.0022C136.05 26.0022 137.316 25.871 137.898 26.1294C137.898 26.5232 138.472 26.3934 138.617 26.7885C138.757 27.181 138.757 27.5734 139.05 27.9712C139.05 28.0998 139.05 28.2283 138.902 28.3664C139.19 28.7561 139.476 29.4152 139.05 29.8036C139.19 30.3313 139.05 30.9904 139.335 31.5168C139.05 31.7767 139.19 32.1745 139.19 32.4357C139.476 32.9581 139.476 33.6171 139.626 34.2748C140.197 34.9298 140.057 35.7214 140.491 36.3751C140.491 36.6389 140.491 36.9001 140.491 37.1559C140.774 37.1559 140.491 37.5565 140.774 37.5565C140.919 38.3481 140.491 39.2656 140.491 40.0573C140.342 40.1831 140.197 40.3185 140.057 40.4511C140.057 40.577 140.057 40.577 140.057 40.7109C139.909 40.7109 139.768 40.7109 139.768 40.5769C139.476 40.9734 139.05 41.236 138.757 41.6298C138.472 41.4985 138.328 41.761 138.184 41.761C137.898 41.761 138.184 42.1549 137.898 42.1549C137.606 42.1549 137.316 42.2848 137.173 42.4174C136.883 42.5487 135.906 42.2848 135.619 42.5487L135.477 42.4174C135.331 42.5487 135.186 42.6799 134.898 42.6799C134.898 42.5486 134.898 42.4174 134.754 42.4174C134.608 42.8098 133.978 43.0764 133.604 42.9424C133.478 42.6799 133.528 42.4877 133.201 42.3673C133.093 41.5391 133.093 40.8246 132.654 40.1141C132.76 40.1141 132.76 39.9964 132.76 39.8787C132.654 39.5214 132.436 39.1655 132.436 38.8109C132.103 38.3319 131.995 37.6268 131.562 37.2709C131.673 37.1505 131.339 37.0314 131.447 36.9136C131.235 36.6809 131.124 36.5591 130.902 36.3223C130.687 36.3223 130.687 36.4427 130.576 36.5591C130.465 37.1505 129.918 37.6268 129.807 38.2182L129.701 38.1005C129.59 38.455 129.263 38.6918 129.263 39.0518C129.046 39.1655 128.933 39.5214 128.72 39.6392C128.72 39.7609 128.72 39.761 128.72 39.8787C127.952 40.5864 127.533 41.7367 126.617 42.232C126.39 42.7286 125.811 42.8288 125.583 43.3809C125.237 43.3809 124.696 43.5163 124.269 43.6543C123.981 43.5163 123.553 43.2361 123.268 43.5163C123.268 43.3809 123.12 43.3809 122.982 43.3809L122.84 43.5163C122.553 43.2361 122.128 43.5163 121.698 43.3809C120.836 42.6854 119.836 42.4106 118.839 41.8598C118.548 41.8598 118.839 41.4444 118.548 41.4444C118.404 41.4444 118.268 41.4444 118.123 41.3091C118.123 40.8936 118.268 40.6162 117.836 40.3415L117.979 40.2035C117.979 40.0695 117.836 40.0695 117.696 40.0695C117.552 39.2358 117.123 38.5443 116.985 37.7202C116.832 37.5822 116.832 37.5822 116.696 37.4428C116.696 37.0273 116.556 36.6173 116.405 36.3385C116.263 35.7877 116.761 35.3249 116.484 34.7958C116.484 34.6713 116.484 34.5346 116.625 34.4074C116.484 33.747 116.625 33.3532 116.761 32.6968C116.625 32.6968 116.625 32.571 116.625 32.4357C116.898 31.9147 116.898 31.3814 116.898 30.8591C117.028 30.4653 117.301 30.0742 117.438 29.6764L117.301 29.5465C117.573 29.2839 117.438 28.8915 117.848 28.6276C117.848 28.495 117.848 28.3664 117.713 28.3664C117.713 28.0998 117.985 27.9713 118.119 27.8373C118.255 27.5734 118.783 26.5422 119.111 26.3419L119.006 26.1863C119.243 25.8466 119.858 25.7072 120.339 25.6625C120.706 25.6301 121.403 25.9873 121.606 26.0996C121.76 26.4123 121.616 26.6545 121.817 27.0496C121.923 27.0496 121.923 27.0496 122.023 27.0496C122.023 27.1809 122.023 27.1809 122.023 27.3149C122.023 27.4448 122.123 27.4448 122.225 27.4448C122.327 27.8372 122.533 28.2284 122.429 28.6276C122.429 28.7561 122.533 28.7562 122.637 28.7562C122.533 29.0201 122.84 29.2839 122.84 29.5465C122.637 29.8036 122.84 30.2041 122.736 30.5993C123.045 31.2529 122.946 32.0419 123.246 32.6968C123.246 33.2206 123.453 33.747 123.659 34.1462Z" fill="#231F20"/>
<path d="M70.8546 39.0115C70.8546 39.0115 71.3878 39.362 71.5299 39.6151C71.6733 39.8695 71.9521 40.1875 72.1524 40.2673C72.4298 40.3796 72.7113 40.5394 72.7113 40.5394L72.8885 40.9074L73.3338 41.3188C73.8047 41.4623 73.9008 41.1821 74.2594 41.6761C74.415 41.6761 74.572 41.6761 74.572 41.8141L74.7303 41.6761C74.886 41.9535 75.2026 42.0915 75.361 42.2323C75.8333 42.2323 76.2379 42.4055 76.5573 42.6802C76.7102 42.6802 76.7345 43.001 76.7345 42.8643C77.2163 42.9929 77.5397 43.3135 77.8578 43.0294C78.012 43.0294 78.1704 43.0294 78.1704 43.1701L78.3233 43.0294C78.6413 42.894 78.7103 43.2676 79.0256 43.1295C79.1853 43.1295 79.1853 43.2675 79.1853 43.4096C79.3382 43.4096 79.3382 43.4096 79.4952 43.4096C79.8119 43.6898 81.1503 43.3176 81.4669 43.6018C83.2465 43.8278 86.1479 43.4151 86.1479 43.4151C86.1614 43.143 86.5985 43.4353 86.6134 43.1674L86.7596 43.3041C87.3537 43.4706 87.9816 42.7871 88.573 43.0794C88.7313 42.9563 88.7313 42.9563 88.8883 42.8291C89.1901 42.7086 89.6231 43.2648 89.9411 42.8805C89.9316 43.0131 90.0832 43.0199 90.2321 43.0267C90.2429 42.8927 90.2429 42.8927 90.2442 42.7601C90.7097 42.5152 91.2795 42.576 91.6219 42.2079C91.7748 42.2215 92.0684 42.2499 92.2214 42.2688C92.3838 42.1524 92.3837 42.1524 92.5502 42.032C93.3283 41.8466 94.009 41.2322 94.8914 41.0306C95.0308 40.8831 95.3325 40.8573 95.4597 40.5745C95.6032 40.5583 95.7561 40.5461 95.9104 40.538C96.0444 40.3932 96.1851 40.2416 96.3164 40.0995C96.7819 40.1875 97.1852 39.5569 97.629 39.4906C97.6087 39.362 97.5871 39.224 97.7319 39.2023L97.9037 39.3133C98.1825 39.1279 98.1825 39.1279 98.2854 38.8437C98.7496 38.9046 99.0026 38.3322 99.253 38.0209C99.4032 38.002 99.4032 38.002 99.5507 37.9817C99.6765 37.8234 99.6765 37.8233 99.8037 37.6677C99.9526 37.646 99.9526 37.6461 100.106 37.6163C100.505 37.282 100.733 36.8422 101.305 36.6176C101.284 36.4863 101.256 36.3524 101.409 36.3239C101.728 36.4119 101.659 36.014 101.782 35.8611C101.912 35.7705 102.309 35.4889 102.413 35.6175C102.391 35.8381 102.799 35.0478 102.781 35.2643C102.886 35.3942 103.402 34.0504 103.523 33.9597L102.272 30.6929C101.808 31.3439 100.168 33.4888 99.2895 33.6891C99.303 34.3738 98.5371 34.4077 98.0147 34.8042C98.0431 34.9301 98.0797 35.0654 97.9281 35.0979C97.4896 35.198 97.2989 35.6865 97.0065 35.7501C96.9754 35.6229 96.8265 35.6554 96.679 35.6893C96.5626 35.853 96.2744 35.9179 96.1892 36.2156C95.748 36.3144 95.6181 36.7488 95.3637 37.0533L95.1945 36.9491C94.6667 37.4336 93.8981 37.3835 93.534 37.9817C92.6828 38.3809 91.9575 38.5189 91.0752 38.8478C90.9263 38.8586 90.7761 38.8681 90.7666 38.7287C90.6353 39.0075 90.0196 38.7842 89.8883 39.0589C88.9803 39.1198 88.2225 39.0318 87.3347 39.228C87.3117 38.9642 86.8773 39.2578 86.8624 38.9966C86.1235 39.3133 85.3738 38.8938 84.62 38.8938C84.4685 38.7571 84.1694 38.7571 84.0165 38.4946C83.2668 38.6259 82.8121 38.4946 82.3601 38.0899C81.9067 38.0899 81.605 37.6853 81.1557 37.554C81.1557 37.4187 81.1557 37.4187 81.1557 37.2901C81.0068 37.1534 81.0068 37.1534 80.8512 37.0222C80.8512 36.6216 81.3032 36.6216 81.605 36.4863C81.9067 36.0871 82.7214 36.1791 83.0205 35.7772C83.0205 35.6419 83.4265 35.3821 83.4265 35.2494C83.574 34.9815 83.6782 34.727 83.8297 34.727C84.2844 34.4591 83.9867 34.1465 84.5916 34.0166C84.5916 33.8812 85.0653 33.5524 84.9083 33.4144C85.5118 33.0152 85.4997 32.7851 85.6526 31.9812C85.9517 31.5861 86.3969 31.1463 86.3969 30.6077C86.5457 30.4778 86.3617 29.8945 86.6662 29.7592C86.8137 28.8268 86.4267 28.3275 86.4267 27.3923C86.2751 27.2597 86.2751 27.2597 86.1235 27.1271C86.1235 26.7211 85.8217 26.4572 85.9747 26.0567C85.5254 25.652 85.635 25.5248 85.1817 25.1256L84.9218 24.8536C84.773 24.8536 84.773 24.8536 84.62 24.8536C84.4685 24.5843 84.0165 24.4544 84.0165 24.181C83.4156 24.0498 82.8121 23.6519 82.2153 23.3812L82.0597 23.5166L81.9067 23.3812C81.7592 23.5166 81.7592 23.5166 81.605 23.6519C81.605 23.2446 81.1557 23.6519 81.0068 23.3812C80.7023 23.3812 80.4005 23.2446 80.1028 23.5166C79.1975 23.2446 78.2218 23.7141 77.3178 23.3176C77.3178 23.5842 76.7142 23.181 76.7142 23.5842C76.4138 23.7141 75.9754 23.706 75.8292 23.8305C75.6776 23.8305 75.5234 23.8305 75.3745 23.8305C74.9185 24.2338 74.5436 24.7047 73.6423 24.7047C73.3419 24.7047 73.6423 25.1026 73.3419 25.1026C73.1903 25.1026 73.1903 25.1026 73.0415 25.1026C72.2877 25.7725 71.6868 26.5777 70.7829 27.1109C70.7829 27.2462 70.4784 27.3761 70.6313 27.6454C70.6313 27.782 70.4784 27.7821 70.3254 27.7821C70.3254 28.0446 70.1793 28.18 70.0264 28.3139C70.0264 28.4479 70.0264 28.5819 70.1793 28.5819C70.1793 28.7172 69.9493 29.0555 69.8004 29.0555C69.6502 29.5901 69.6502 30.1313 69.1968 30.3939C69.1968 31.4643 68.8829 31.9786 68.8125 33.1546C68.9181 33.7757 68.9708 34.7203 68.9708 35.2779C69.4404 35.5607 68.8545 35.5458 69.1671 35.9626C69.3227 35.9626 69.2401 36.2021 69.2401 36.3455C69.3958 36.623 69.8978 36.8246 69.7354 37.1061C69.7354 37.2441 69.998 37.37 70.155 37.37C70.3146 37.6488 69.9249 37.9573 70.2415 38.0981C70.2415 38.2347 70.7423 38.1278 70.5826 38.4039L70.8546 39.0115ZM80.6726 30.3019C80.3694 30.4426 80.6726 30.7254 80.3694 30.8662L80.5237 31.0055C80.4073 32.1531 79.6887 33.7148 78.0878 34.8231C77.9376 34.8231 77.7833 34.8231 77.7833 34.6824C77.7833 34.3955 77.4734 33.9746 77.6331 33.6918C77.6331 33.5524 77.4734 33.5524 77.3246 33.5524C77.6331 33.2683 77.1189 32.9854 77.2799 32.5591C77.1189 32.5591 77.1189 32.421 77.1189 32.2776C77.579 31.9948 77.2055 31.2694 77.6642 30.9907L77.514 30.8445C77.6642 30.5644 77.9024 30.1259 78.1988 29.8377C78.1988 29.7024 78.1988 29.7023 78.1988 29.5562C78.8105 28.9919 79.6062 28.7415 80.3694 28.4682C80.5237 28.4682 80.6726 28.4682 80.6726 28.6008C81.13 29.1759 80.8255 29.7335 80.6726 30.3019Z" fill="#231F20"/>
<path d="M106.853 29.0133C106.87 29.2 106.892 29.3827 106.911 29.5627C107.942 30.5614 107.742 32.2638 108.427 33.4818C108.099 33.9067 108.331 34.4344 108.19 34.8282C108.391 34.9879 108.391 34.988 108.593 35.1477C108.32 36.118 108.972 36.9705 108.883 37.9178C108.714 38.1248 108.714 38.1248 108.55 38.3319C108.567 38.5146 108.59 38.6999 108.772 38.6796L108.609 38.8853L108.808 39.0491L108.643 39.2575C108.826 39.2277 108.848 39.4145 108.864 39.6066C108.536 40.0113 109.14 40.5025 108.628 40.9356C108.833 41.098 108.848 41.2834 108.865 41.4715C108.355 41.9072 108.668 42.7029 108.308 43.2753L108.498 43.4499L108.32 43.6502L108.126 43.4703C107.942 43.4797 107.949 43.6692 107.954 43.8492C108.144 44.2105 108.523 44.561 108.163 44.9548L108.351 45.1253C107.804 45.5272 107.643 45.9981 107.483 46.5394C107.314 46.7248 107.314 46.7248 107.145 46.9116C107.325 47.0835 107.332 47.2553 107.332 47.4366C106.998 47.8088 106.83 48.1729 106.497 48.5464C106.497 48.7223 106.682 49.0728 106.339 49.2622L106.519 49.4341C106.348 49.8008 106.192 50.3394 106.031 50.7089C106.203 50.6967 106.205 50.874 106.205 51.0499C105.697 51.4342 105.111 51.8402 105.301 52.5385C104.972 53.0906 104.543 53.2747 104.206 53.8295C104.388 54.1706 103.604 54.3343 103.612 54.6875C103.617 55.0407 103.1 54.8973 103.282 55.2356L103.457 55.4088C103.286 55.4223 103.286 55.4223 103.12 55.4291C102.946 55.7931 102.946 55.7931 102.613 55.9853C102.614 56.1626 102.621 56.3453 102.445 56.352C102.141 56.5834 101.988 56.8582 101.658 57.2317C101.834 57.4035 101.105 57.7702 101.273 57.7824C101.082 57.9448 100.9 58.118 100.865 58.4672C100.695 58.4591 100.522 58.455 100.505 58.6255L100.514 58.8556C100.392 58.9801 100.361 58.9774 100.108 59.0356C98.767 60.5688 96.8061 61.171 95.4596 62.6948C95.0956 62.8626 94.7383 63.0196 94.381 63.1806C94.0157 63.3376 94.1388 63.8721 93.8181 63.6773C93.8357 63.5027 93.3566 63.8315 93.1848 63.8248C92.8059 64.1617 92.247 63.9127 91.8965 63.8924C91.9113 63.7192 91.7083 63.7571 91.5514 63.5744L91.3619 63.7408C91.2103 63.5527 90.8193 63.1955 90.646 63.1833C90.4931 63.0034 90.8328 62.8139 90.6609 62.8071L90.8544 62.6352C90.8693 62.4634 90.5811 62.4201 90.4106 62.4106C90.0993 62.0398 90.761 62.3199 90.623 61.9491L89.9504 61.8964C89.7908 61.5472 89.4606 61.5391 89.3198 61.1737C89.3509 60.8286 90.1061 60.8354 90.1372 60.4768C90.4809 60.4971 90.3794 60.4429 90.7435 60.2778L90.6162 60.0275C90.983 59.8583 90.9261 59.5593 91.0939 59.5661C91.0858 59.742 91.2279 59.539 91.3957 59.5498C91.5703 59.5593 91.7395 59.5661 91.7611 59.3915C91.7747 59.2128 91.7895 59.0356 91.979 58.8664C92.1495 58.8813 92.1495 58.8813 92.3241 58.888C93.0711 58.2114 92.592 58.662 93.3634 57.8108C93.3756 57.6349 93.3756 57.6349 93.3945 57.459C93.5799 57.2912 93.6124 56.9393 93.9764 56.7769C93.9588 56.9556 93.9358 57.1302 94.1158 57.141C94.6598 56.8108 94.3323 56.6173 94.1943 56.26C94.3824 56.0854 94.3824 56.0854 94.5732 55.9244C94.5529 56.1017 94.8588 55.965 94.6896 55.9555C94.6734 56.1328 94.8696 55.5441 95.0415 55.5522C95.4637 54.8973 95.1565 55.67 95.7885 54.4561C95.9197 54.3235 96.2445 54.2017 96.2743 54.1123C96.2377 54.0975 96.6762 53.9405 96.5206 53.7564C96.4962 53.6157 96.5625 53.5562 96.2039 53.7199C96.4096 53.3748 97.0105 52.8552 97.0416 52.4979C97.5409 52.7036 97.1431 51.9052 97.4854 51.9201C97.2987 52.0838 97.1255 51.7455 97.1309 51.9228L97.702 51.9079C98.0822 51.5722 97.1742 51.5858 97.5125 51.2082C97.5085 51.0337 97.4584 50.9335 97.2892 50.943C97.2797 50.7657 97.2392 50.6196 97.4124 50.6101L97.5883 50.7792C97.7547 50.5939 97.4259 49.9971 97.7642 49.8008C97.7602 49.6236 97.7601 49.4436 97.7547 49.2622C98.2636 48.886 98.0349 48.9483 98.1932 48.407L98.0186 48.2392C98.0214 48.4137 98.3881 48.0754 98.2162 48.0822C98.2108 47.8995 98.2108 47.8995 98.2108 47.7222C98.5505 47.5274 98.7873 46.3473 98.7778 45.99C98.7873 46.3473 98.3773 45.1794 98.7251 45.3405C99.2217 44.5962 98.8834 43.6137 98.9619 42.7083C98.6006 42.5757 99.2406 42.3173 99.0403 41.9884C98.8712 42.0047 98.6993 42.029 98.6777 41.8517C98.8333 41.6541 98.8333 41.6542 98.9795 41.4498C98.9646 41.2779 98.947 41.1006 98.7778 41.1237C98.7616 40.9464 98.748 40.765 98.9159 40.7488C98.8901 40.5715 98.878 40.3969 98.7061 40.4159C98.8577 40.2156 98.8577 40.2157 99.0133 40.0167C98.9943 39.8421 98.8238 39.861 98.6547 39.8895C98.7548 39.1533 98.0214 38.6256 98.2879 37.8799C98.1215 37.8975 98.1026 37.7242 98.085 37.5429C98.5437 36.9488 97.9185 36.2343 98.204 35.6619C97.8468 35.5306 97.9848 35.1517 97.9429 34.7958C98.0985 34.6009 97.656 34.4236 97.6384 34.2491C97.204 33.4073 97.3285 32.7375 97.051 31.8389C96.7141 32.1447 96.4664 29.3665 96.1701 28.2893C95.7262 27.595 96.0199 26.8115 95.7573 26.0929C95.94 26.0726 96.1268 26.0496 96.1105 25.8655C95.8683 25.3364 96.4028 25.0779 96.5287 24.5068C96.8981 24.4595 97.2419 24.2267 97.6519 24.5515C97.9997 24.3255 97.7832 23.9777 97.7602 23.7937C98.4936 23.7057 99.0471 23.6299 99.7846 23.5393C99.8036 23.7233 99.8185 23.9101 100.005 23.8857C100.555 23.8153 100.779 24.1577 101.329 24.0914C101.348 24.2795 101.364 24.4636 101.551 24.4433C101.913 24.3932 102.116 24.5542 102.322 24.7193C102.506 24.695 102.691 24.672 102.67 24.4907L102.873 24.6449L103.039 24.4433C103.241 24.6057 103.42 24.5813 103.605 24.5542C103.811 24.7193 103.866 25.2701 104.218 25.0454C105.099 26.4258 106.156 27.6045 106.853 29.0133Z" fill="#231F20"/>
<path d="M25.6885 32.3073C25.6276 32.0109 25.1986 31.9243 25.0254 31.9202C24.8441 31.9175 24.5125 32.291 24.342 31.9974C24.342 31.9974 24.0497 32.471 23.6952 32.7241C23.4556 32.8959 23.0889 32.8689 23.0889 32.8689C23.0009 33.3209 22.9536 33.371 23.3501 34.4292C23.53 34.4644 23.7168 35.4767 23.9144 35.5227C23.8305 35.1329 24.4368 36.3603 24.633 36.5322C24.7561 36.566 24.7561 36.566 24.882 36.5972C25.0065 36.6283 24.9456 36.7446 24.8901 36.8529L25.4422 37.2427C25.4964 37.3902 25.6154 37.4335 25.4855 37.6459C25.9064 37.6744 26.173 37.926 26.5276 38.0817C26.6493 38.1344 26.5736 38.2346 26.5045 38.3402C26.6196 38.3875 26.736 38.4403 26.8104 38.3402C27.1149 38.3402 26.8983 38.65 26.943 38.7975L27.1325 38.7488C27.1758 38.9004 27.4099 39.0032 27.4099 39.0032C27.7793 39.5621 29.571 40.2442 30.0176 40.7517L30.1936 40.6664C30.3343 40.9574 31.1233 41.0115 31.1233 41.3904L31.287 41.2903C31.3709 41.4269 32.5577 41.6529 32.8852 41.8289C33.0503 41.726 32.8162 41.5514 32.9948 41.4648C33.191 41.6299 33.6011 42.0048 33.7905 42.1794C33.7905 42.1794 34.3034 42.2172 34.6688 42.3025C35.1289 42.7897 36.0735 42.4879 36.6365 42.7396C36.7109 42.8844 36.8273 42.9155 36.9477 42.9426L37.1277 42.8533L37.1994 42.9954C37.5486 42.8168 37.7394 42.9886 37.9722 42.787L38.0439 42.9318L38.2171 42.8371C38.2875 42.9819 38.2875 42.9819 38.3538 43.1294C38.8437 43.2363 39.2889 43.465 39.814 43.1971C39.8816 43.3419 40.0088 43.3689 40.1279 43.3946C40.3025 43.304 40.3025 43.304 40.4838 43.2201C40.8506 43.3013 40.9169 43.446 41.3445 43.4135L41.4108 43.5557C41.9399 43.2918 42.3067 43.3689 42.7966 43.4799C42.9021 43.2498 43.1647 43.5678 43.2689 43.331L43.3379 43.4772C43.7452 43.1794 44.3731 43.3337 44.7953 43.3175L44.8603 43.465C45.0416 43.3811 44.9686 43.4772 44.9686 43.4772C45.3245 43.3121 46.1892 43.2985 46.4193 43.105C46.9105 43.2309 46.8916 43.3242 47.5587 43.2349C47.6954 43.2674 47.9701 43.3283 48.0987 43.3689C48.644 43.009 49.115 43.0197 49.5819 43.2863C50.1205 43.1848 50.9798 42.764 51.4494 42.515C51.5833 42.5529 51.7227 42.5934 51.8567 42.6327C52.0597 42.5583 52.1923 42.603 52.329 42.377C52.9325 42.1699 53.3683 41.9615 53.9137 41.5947C53.9759 41.749 54.317 41.4622 54.3833 41.6043C54.4509 41.4987 54.4509 41.4987 54.5199 41.3863C54.7879 41.4689 54.9895 41.1346 55.2575 41.2145C55.3292 41.1076 55.3292 41.1076 55.3955 40.9966C55.8042 40.8572 55.6432 40.7517 56.0451 40.6163C56.3929 40.3795 56.88 39.5662 57.6731 39.2198C57.6541 38.9572 58.1751 38.8165 58.2929 38.5878C58.3497 38.4728 58.4891 38.5012 58.623 38.5283L58.5459 38.3834C58.7381 38.2955 58.6826 37.918 58.8666 38.0858C58.9167 37.9707 59.1481 37.6676 59.0344 37.6459C59.4201 37.3428 59.4147 36.3549 59.9844 36.2317C60.0332 36.11 60.0332 36.1099 60.0832 35.999C60.3092 35.6958 60.2199 35.1329 60.3498 35.0571C60.3945 34.9461 60.3336 34.8636 60.4513 34.892C60.5975 34.4387 60.7044 33.7471 60.8397 33.1368C60.7233 33.1111 60.7775 32.9948 60.8262 32.8784C60.9412 32.9041 60.9899 32.7877 61.0441 32.674C60.9277 32.6456 60.9777 32.5238 61.0265 32.4101L61.1916 32.3235C60.9588 32.2707 61.224 31.9541 60.9899 31.9027L61.1496 31.8092C60.952 31.253 61.2389 30.6888 61.0441 30.1353L61.1943 30.0432C60.925 29.7279 60.971 29.3936 61.2037 29.0662C61.1212 28.92 61.1631 28.8037 61.2037 28.6832C60.8898 28.4884 61.2714 28.2786 61.0752 28.1054C61.1902 27.7562 60.7991 27.4098 61.0346 27.0809C60.879 26.7913 60.8478 26.6696 60.6814 26.3881C60.7125 26.2636 60.7463 26.1444 60.7829 26.024C60.6651 25.9996 60.5447 25.9753 60.5745 25.8548C60.7612 25.637 60.5569 25.4732 60.6259 25.231C60.3891 25.1864 60.5163 24.982 60.4351 24.8426C60.3593 24.1944 60.1888 23.7059 59.8045 23.1537C59.9641 22.9156 59.6353 21.9723 59.6502 21.676L59.4215 21.5542C59.3227 21.2524 59.2144 21.0968 58.9857 20.9385C58.9979 20.7896 58.9979 20.7896 59.0047 20.6434C58.8869 20.6353 58.7692 20.6299 58.7814 20.4797C58.7882 20.3363 58.7882 20.3362 58.7963 20.1847L58.665 20.3268C58.4458 20.1671 58.3483 19.8721 58.3646 19.5689C57.9288 18.9559 57.7637 18.5147 57.1439 17.6216C56.9003 17.7704 57.1331 17.1614 56.8408 17.2981C56.5079 16.543 56.2887 16.3576 55.7934 15.8934C55.8123 15.7473 55.8123 15.7473 55.8218 15.5971C55.6865 15.5917 55.6865 15.5917 55.5511 15.5863C55.4131 15.5863 55.432 15.4333 55.4456 15.2872C54.6688 14.8122 51.9149 14.4279 51.4927 13.6687C51.2532 13.6551 51.019 13.5009 50.8769 13.7986C50.7687 13.6416 50.7687 13.6416 50.6604 13.4901C50.0176 13.915 49.4763 13.1531 48.8809 12.9866L48.751 13.126C48.5425 12.6754 48.1447 13.1098 47.8997 13.1084C47.7969 12.9514 47.6724 12.9433 47.5533 12.9406C46.9213 13.2208 46.3421 12.9054 45.7981 13.6376L45.6871 13.4819L47.0594 16.0423C47.0282 16.1804 47.4126 17.7758 47.7779 18.5756C47.9024 18.5973 48.0621 18.8869 48.1474 19.052C48.1149 19.19 48.1149 19.19 48.0865 19.3348C48.2692 19.6664 48.4519 19.9952 48.6346 20.3335C48.5101 20.3051 48.4789 20.4432 48.4478 20.5866C48.5953 21.0575 48.5899 21.5677 48.732 22.0251C48.9255 22.197 48.7009 22.2999 48.912 22.515C48.9323 22.5353 48.7834 22.8127 48.8132 22.8276C48.7279 23.0604 48.8741 23.3378 48.8741 23.3378C48.9445 23.848 48.9174 23.4434 49.2733 23.8088C48.9445 24.2012 49.4966 24.8426 49.1691 25.231C49.345 25.4137 49.3518 25.1553 49.4086 25.3001C49.3491 25.4029 49.3491 25.4029 49.2923 25.5098C49.2368 25.6167 49.3477 25.656 49.4628 25.7006C49.5778 25.9875 49.3694 26.158 49.5223 26.4354C49.6373 26.4638 49.5318 26.8171 49.6468 26.8428C49.682 27.1053 50.0095 27.1811 49.6955 27.3624C49.5819 27.3313 49.6468 27.8523 49.5264 28.2001C49.6008 28.3368 49.5291 28.9336 49.4898 29.0527C49.6076 29.0784 49.6888 28.9376 49.6455 29.0527C49.6049 29.1677 49.6049 29.1677 49.5656 29.2814C49.682 29.3057 49.6698 29.5182 49.6252 29.6318C49.6211 30.0026 49.3843 30.1921 49.2638 30.5331C49.1285 31.2788 49.5182 31.8864 49.0108 32.153C49.1935 32.3167 48.9688 32.5157 48.9174 32.6347C48.7496 32.7132 48.7942 33.0759 48.6413 33.1666C48.4519 33.624 48.3612 33.5983 48.1731 34.053C47.8659 34.2316 47.8158 34.4292 47.51 34.6078C47.4613 34.7201 47.4613 34.7202 47.4139 34.8325C47.3693 34.9475 47.2624 34.9204 47.1568 34.8988C46.9579 35.1058 46.2582 35.4252 46.1608 35.6445L46.2217 35.7879C45.8062 35.9408 45.6858 35.9922 45.223 36.2575C44.7669 36.5295 44.4273 36.5322 43.9523 36.7758C43.5355 36.6594 43.1809 36.9666 42.7654 36.8488C42.6044 36.9341 42.4474 37.0207 42.2877 37.0924C42.078 37.0356 41.7654 37.1994 41.607 37.0316C41.4013 36.9788 41.4433 37.3631 41.2403 37.3103C41.1375 37.2779 41.1374 37.2778 41.0319 37.2494L40.9832 37.1101C40.6638 37.2765 40.4094 37.0775 40.09 37.2386L40.0413 37.1046C39.7246 37.2657 39.4608 37.0856 39.2591 37.2927C38.9925 37.11 38.4147 37.1046 37.9464 37.1398C37.9884 37.0221 37.8842 37.0031 37.7773 36.9855L37.6244 37.083C37.6704 36.9666 36.7299 37.0315 36.6257 37.0207L36.4105 36.9788L36.3455 36.8421L36.1967 36.9368C36.0262 36.7866 34.9002 36.6729 34.6323 36.3792C34.4171 36.5822 34.2128 36.4929 33.9692 36.4429C32.9637 36.3793 31.7376 35.9354 31.6131 35.9083L31.5401 35.7608C31.1896 35.9381 30.6104 35.75 30.4574 35.4685C30.3343 35.4414 30.1665 35.4252 30.0447 35.3887C29.9148 35.0909 29.1204 35.1478 29.0216 34.8501C29.0216 34.8501 28.6238 34.574 28.4546 34.371C28.1934 34.5307 27.5425 33.7499 27.4207 33.6998L26.985 33.6835L26.8293 33.214L26.242 32.7742C26.0052 32.3357 25.7657 32.6821 25.6885 32.3073Z" fill="#231F20"/>
<path d="M34.9215 15.2561C35.0853 15.2615 35.249 15.2697 35.4046 15.2805C36.1828 16.0762 37.7174 15.8448 38.731 16.355C39.1383 16.0627 39.5781 16.2372 39.9476 16.1019C40.0721 16.2629 40.0721 16.263 40.1925 16.4226C41.0843 16.1574 41.5634 16.604 42.4132 16.5431C42.6216 16.4118 42.6216 16.4118 42.83 16.2738C42.9884 16.2941 43.1453 16.3198 43.1007 16.4619L43.3091 16.3293L43.4228 16.4957L43.6298 16.3685C43.5798 16.516 43.7394 16.539 43.9005 16.5485C44.3119 16.2913 44.5649 16.6405 45.0386 16.2481C45.1441 16.4226 45.3038 16.4456 45.4635 16.4713C45.9358 16.0762 46.1036 16.4903 46.6814 16.3022L46.7816 16.4795L46.9913 16.3658L46.898 16.1844C46.9534 16.0383 47.1091 16.0762 47.2661 16.11C47.5218 16.3266 47.6964 16.6486 48.1362 16.4456L48.2242 16.627C48.4975 16.4348 46.3878 16.3387 49.6776 16.2345C49.8887 16.1411 49.8887 16.1411 50.0998 16.0464C50.1823 16.221 50.3272 16.2629 50.4747 16.3022C50.8942 16.1127 51.2487 16.0586 51.6696 15.8718C51.8184 15.907 52.0458 16.1236 52.3205 15.8976L52.4017 16.0654C52.7617 16.0193 53.2637 16.0004 53.6156 15.9517C53.5588 16.0843 53.3788 15.7636 53.5168 15.8272C54.0243 15.5714 54.5724 15.2697 55.046 15.6472C55.6076 15.5863 55.8539 15.3035 56.4196 15.2615C56.605 15.5281 57.0583 15.0031 57.3276 15.1506C57.5929 15.2832 57.601 14.911 57.7783 15.1817L57.8256 15.3725C57.9095 15.2615 57.9095 15.2615 57.9948 15.137C58.3412 15.1627 58.3412 15.1627 58.6349 15.0003C58.7662 15.0761 58.8974 15.1559 58.9813 15.0342C59.2926 14.911 59.5659 14.911 59.9882 14.819C60.0369 15.022 60.34 14.7256 60.2615 14.8474C60.4699 14.796 60.6878 14.7568 60.9476 14.9083C61.0275 14.7879 61.1154 14.6661 61.2453 14.7432L61.3996 14.8596C61.5485 14.8366 61.562 14.8122 61.7352 14.6755C63.4918 14.5186 64.4702 13.662 66.2146 13.662C66.5204 13.5212 66.8303 13.3859 67.1334 13.2465C67.4379 13.1085 67.714 13.4819 67.7722 13.168C67.649 13.08 68.1308 12.9583 68.2228 12.8473C68.6518 12.8013 68.9157 12.0597 69.0903 11.8201C68.9644 11.7362 69.0984 11.6267 69.0605 11.421L69.2702 11.3857C69.2283 11.1855 69.1904 10.3424 69.2729 10.2219C69.235 10.023 68.9306 10.1516 69.0118 10.0298L68.9373 9.88902C68.8128 9.80376 68.9752 9.58997 69.0605 9.47629C68.9779 9.07031 68.6098 9.52772 68.4366 9.23947L68.7573 8.76715C68.6098 8.4789 67.9616 8.30979 67.7113 8.13928C67.538 8.38151 67.5516 8.28404 67.2498 8.43696L67.1496 8.21236C66.8465 8.3734 66.6692 8.17848 66.5853 8.2935C66.7112 8.37335 66.5014 8.36389 66.4175 8.47892C66.3269 8.59936 66.2443 8.71978 66.1171 8.63182C65.9899 8.55198 65.8613 8.46812 65.6516 8.5033C65.565 8.6278 65.565 8.62777 65.4811 8.73874C64.6312 8.88354 62.7163 8.92954 62.5242 8.66836C62.3104 8.71979 62.3104 8.71979 62.102 8.77257C62.2386 8.84294 61.9923 8.99992 62.0722 8.87406C62.2062 8.94714 61.6865 8.80372 61.608 8.93228C60.93 8.92551 59.4374 9.07844 59.7297 8.90386C59.3846 8.88898 58.7161 9.07031 58.4495 8.92957C58.3493 9.37073 57.8716 8.68057 57.7268 8.92957C57.9379 8.87408 57.4589 8.84294 57.5983 8.90789L57.6145 9.08247C57.1896 9.21239 57.1639 8.81586 56.7417 8.96743C56.5982 8.90789 56.5373 8.83621 56.6063 8.71171C56.4642 8.65893 56.3668 8.57635 56.2991 8.71032L56.3668 8.89032C56.1557 8.96745 55.7998 8.5398 55.521 8.73603C55.3776 8.68054 55.2422 8.62374 55.0961 8.56826C54.6103 8.84297 54.0865 8.83079 53.5831 8.87003L53.487 8.70087C53.6332 8.732 53.2421 8.96746 53.2989 8.83078C53.1487 8.7956 53.1487 8.79557 52.9985 8.76715C52.7414 9.00938 51.6764 9.00265 51.3773 8.93228C51.6764 9.00265 50.7751 8.41535 50.8306 8.71984C50.0754 9.01079 49.2121 8.57231 48.4109 8.56555C48.3622 8.25835 48.0252 8.76719 47.7708 8.57638C47.8209 8.437 47.8696 8.29622 47.7221 8.2678C47.5218 8.38147 47.3743 8.3328 47.1754 8.45189C47.0265 8.43701 46.8695 8.41535 46.9169 8.27461C46.7626 8.25837 46.6084 8.23942 46.5651 8.37339C46.4121 8.35445 46.2592 8.33279 46.3039 8.19882C46.109 8.31249 45.9074 8.46539 45.7152 8.58854C45.5636 8.57907 45.6015 8.43695 45.6394 8.29621C44.9817 8.38824 44.6082 7.79553 43.914 8.02153C43.9505 7.88755 43.803 7.874 43.642 7.85911C43.0655 8.24209 42.2454 7.82528 41.7109 8.09593C41.6202 7.8131 41.2751 7.94983 40.9652 7.94713C40.7771 8.08245 40.6567 7.73462 40.5038 7.73191C39.7892 7.43419 39.183 7.58172 38.4116 7.41256C38.708 7.11619 36.264 7.10401 35.3289 6.9362C34.7456 6.62089 34.0257 6.91724 33.4126 6.75079C33.3774 6.90236 33.3436 7.05666 33.1812 7.05395C32.7292 6.89291 32.4599 7.34623 31.9416 7.49238C31.8726 7.79551 31.5411 7.94031 31.6317 8.20285C31.4017 8.50327 31.3719 8.55471 31.2109 8.552C31.0742 9.16097 30.97 9.09737 30.813 9.69957C30.974 9.71581 31.1378 9.71852 31.0972 9.86873C30.9754 10.318 31.2596 10.4926 31.1378 10.9446C31.2988 10.9541 31.4666 10.9622 31.4206 11.1124C31.3448 11.4169 31.4666 11.5725 31.5884 11.7336C31.5465 11.8838 31.5086 12.0353 31.3462 12.0285L31.4666 12.1869L31.265 12.3276C31.3895 12.4887 31.3516 12.6362 31.3083 12.7864C31.4301 12.9434 31.9132 12.9718 31.6777 13.2668C32.8104 13.9339 33.7469 14.7459 34.9215 15.2561Z" fill="#231F20"/>
</svg>
