<svg width="122" height="87" viewBox="0 0 122 87" fill="none" xmlns="http://www.w3.org/2000/svg">
<path fill-rule="evenodd" clip-rule="evenodd" d="M56.4498 35.9241C48.4461 28.3667 36.7948 39.0451 43.4981 49.0271C46.9239 54.1256 55.7448 57.4444 68.3969 56.778C70.2028 56.6835 70.7931 56.2837 68.997 55.4669C57.9213 50.4329 62.3526 41.4998 56.4498 35.9241Z" fill="#77B72D"/>
<path fill-rule="evenodd" clip-rule="evenodd" d="M30.5817 59.22C31.4058 57.6509 31.6277 57.264 29.5044 58.2485C17.4972 63.8284 15.1435 54.8266 7.16566 56.026C2.73995 56.688 -0.658758 60.9482 0.108594 65.6211C1.02727 71.2053 7.49968 73.3204 12.6446 72.796C23.2465 71.7083 29.2198 61.8123 30.5817 59.22Z" fill="#F49418"/>
<path fill-rule="evenodd" clip-rule="evenodd" d="M21.4059 55.4111C21.831 55.7679 22.3834 56.4643 20.8401 56.2322C1.63871 53.3347 -1.8464 41.977 3.14332 36.3971C5.79187 33.4308 11.4582 33.0482 14.1665 36.036C19.2981 41.6933 13.7689 48.9584 21.4059 55.4111Z" fill="#0099D2"/>
<path fill-rule="evenodd" clip-rule="evenodd" d="M90.6276 9.92448C92.4993 9.99327 92.9782 10.3715 91.0828 11.1281C86.5694 12.9337 82.0151 16.2868 81.8363 23.8873C81.5762 34.8409 65.7254 31.9348 67.512 20.4868C69.5299 7.52568 88.457 9.84281 90.6276 9.92448Z" fill="#F49418"/>
<path fill-rule="evenodd" clip-rule="evenodd" d="M34.6077 65.6467C37.865 75.3837 51.5488 71.9876 50.4169 62.6289C49.4419 54.5728 39.8107 57.1564 39.8107 48.2921C39.8107 47.2131 39.7209 46.3232 38.6371 47.9783C35.6188 52.5867 32.9939 60.8234 34.6077 65.6467Z" fill="#BA68A2"/>
<path fill-rule="evenodd" clip-rule="evenodd" d="M93.5663 60.3505C85.1448 66.3045 82.062 59.1039 76.0006 58.7643C69.0192 58.3731 66.9936 69.7135 75.9739 71.8028C80.1383 72.7873 90.4092 70.7797 94.6333 60.5526C94.856 60.0153 94.6264 59.4048 93.5663 60.3505Z" fill="#77B72D"/>
<path fill-rule="evenodd" clip-rule="evenodd" d="M91.1232 52.9006C93.0104 43.3312 85.0656 34.3938 84.3103 33.4438C84.1121 33.1987 82.494 31.2428 83.1947 34.1144C85.2934 42.6735 80.869 45.1024 79.526 51.1982C77.5898 59.9766 89.4754 61.2447 91.1232 52.9006Z" fill="#F49418"/>
<path fill-rule="evenodd" clip-rule="evenodd" d="M42.3854 33.4523C32.3126 34.4711 26.4395 37.2912 23.2682 39.7502C18.5961 43.3699 19.152 49.1476 21.9454 51.9548C24.8755 54.9038 30.5006 55.8108 34.1457 51.3228C38.5409 45.9148 34.2394 39.316 42.8531 34.3207C44.1152 33.5899 43.3247 33.362 42.3854 33.4523Z" fill="#EB5F27"/>
<path fill-rule="evenodd" clip-rule="evenodd" d="M107.652 34.6732C105.752 35.49 104.274 37.0032 103.212 38.7529C102.092 40.5971 101.653 42.7595 100.516 44.5908C99.533 46.1771 98.2781 47.6946 96.7989 48.8037C95.9799 49.4141 95.5229 50.2782 97.0916 49.9515C98.3477 49.6936 100.125 49.4442 102.283 49.6635C104.446 49.8784 107.312 50.9231 108.613 51.2369C111.29 52.1267 114.414 52.0838 116.441 49.9472C119.742 46.4651 119.319 40.0124 116.08 36.6077C113.963 34.3852 110.524 33.4351 107.652 34.6732Z" fill="#77B72D"/>
<path fill-rule="evenodd" clip-rule="evenodd" d="M115.458 54.5471C108.691 53.4853 105.37 58.6311 95.4131 51.7786C94.5293 51.1682 93.7855 50.6652 94.4377 52.6771C95.5068 55.9529 100.257 69.1075 109.46 71.4461C122.935 74.868 126.503 56.5848 115.458 54.5471Z" fill="#0099D2"/>
<path fill-rule="evenodd" clip-rule="evenodd" d="M51.4869 5.88776C50.0266 13.3721 55.8112 16.9144 54.39 27.9196C54.276 28.8009 55.0666 28.7751 55.2815 28.2893C59.672 18.1955 66.2317 18.5867 68.716 10.7971C72.4268 -0.840038 53.409 -3.9782 51.4869 5.88776Z" fill="#0099D2"/>
<path fill-rule="evenodd" clip-rule="evenodd" d="M22.8272 34.7378C31.7534 35.4385 32.216 28.8655 48.075 29.7554C49.3656 29.8285 49.2091 28.9816 48.3781 28.7323C34.1613 24.442 31.7405 15.3369 24.3495 15.0532C12.2752 14.5975 10.5646 33.7835 22.8272 34.7378Z" fill="#BA68A2"/>
<path fill-rule="evenodd" clip-rule="evenodd" d="M33.6438 16.2054C39.1133 23.2384 43.3658 18.5955 49.6387 25.3663C50.5548 26.3507 51.2431 25.8693 50.5325 24.7172C46.1596 17.6369 51.0763 11.2273 47.4038 6.54577C40.4812 -2.27985 27.2084 7.9343 33.6438 16.2054Z" fill="#EB5F27"/>
<path fill-rule="evenodd" clip-rule="evenodd" d="M84.8125 23.4831C84.8125 30.9417 93.0079 34.3937 93.5324 48.2964C93.5663 49.2163 94.4128 49.2421 94.5903 48.3307C97.2995 34.484 104.893 31.8058 105.548 23.8486C106.56 11.5494 84.8125 9.32255 84.8125 23.4831Z" fill="#EB5F27"/>
<path fill-rule="evenodd" clip-rule="evenodd" d="M77.504 47.9051C80.8219 45.0292 81.965 39.9177 78.9506 36.2121C73.4244 29.8755 67.4906 36.182 61.844 25.6068C60.9167 23.87 60.3132 24.244 60.6519 26.1226C61.8105 32.5838 59.6915 38.9978 63.4655 44.7325C67.2064 50.4114 73.8861 51.0433 77.504 47.9051Z" fill="#BA68A2"/>
<path fill-rule="evenodd" clip-rule="evenodd" d="M60.41 59.9248C56.3755 59.9248 53.1045 63.1963 53.1045 67.2286V86.8703H67.7143V67.2286C67.7143 63.1963 64.4441 59.9248 60.41 59.9248Z" fill="#A9A896"/>
</svg>
