<svg width="103" height="88" viewBox="0 0 103 88" fill="none" xmlns="http://www.w3.org/2000/svg">
<path fill-rule="evenodd" clip-rule="evenodd" d="M56.2982 0C56.6181 5.22463 54.3789 6.93063 51.1802 7.2505C48.4078 7.2505 46.7021 7.99687 45.4224 9.48962L30.0686 35.826C38.5983 36.2525 46.8087 39.3446 53.8458 49.474C57.791 55.1252 64.7216 59.9233 77.7298 62.3757C68.1336 64.5082 61.3096 60.4564 50.0073 56.9378C40.944 54.1655 27.0829 52.9927 17.5934 57.3643L0 87.6458C12.0486 77.6231 33.6935 75.0641 49.1545 80.9285C66.9607 87.6459 84.1274 89.6717 103 79.9688L90.0984 58.1107C87.8592 59.9233 85.6201 60.8829 83.381 61.2028L85.8334 43.7163C77.9431 44.5693 71.1191 42.65 66.1077 36.8923C58.644 28.149 51.3934 21.6449 44.2497 20.1507C46.062 16.4203 49.7939 16.9534 54.379 18.5528C57.6843 19.619 63.5487 18.3395 64.8282 14.3944L56.2982 0Z" fill="#009FB0"/>
<path fill-rule="evenodd" clip-rule="evenodd" d="M32.903 37.1323C37.5743 37.1323 41.2924 40.8509 41.3879 45.5217C41.3879 50.0977 37.6696 53.9109 32.9984 53.9109C28.4227 53.9109 24.6094 50.1939 24.6094 45.6179C24.6094 40.9456 28.3276 37.2286 32.903 37.1323Z" fill="#E67C42"/>
</svg>
