<svg width="97" height="94" viewBox="0 0 97 94" fill="none" xmlns="http://www.w3.org/2000/svg">
<path fill-rule="evenodd" clip-rule="evenodd" d="M46.0792 46.3896L41.9178 0.494873C34.3702 3.11606 28.9532 10.2875 28.9532 18.7247C28.9532 20.766 29.2879 22.724 29.874 24.5699C26.7145 22.3125 22.8482 20.978 18.668 20.978C12.1493 20.978 6.38521 24.2124 2.89307 29.1638L46.0792 46.3896Z" fill="#009F3A"/>
<path fill-rule="evenodd" clip-rule="evenodd" d="M44.8658 50.6339L0 40.1221C0.103933 48.1083 5.20706 55.5104 13.214 58.169C15.1514 58.8113 17.1157 59.1127 19.053 59.1377C15.9121 61.4242 13.4302 64.6731 12.1103 68.6392C10.0566 74.8274 11.31 81.317 14.9082 86.1914L44.8658 50.6339Z" fill="#009F3A"/>
<path fill-rule="evenodd" clip-rule="evenodd" d="M48.5952 52.7852L24.9214 92.3233C32.5625 94.6514 41.1619 92.0468 46.1341 85.2288C47.3355 83.5784 48.2231 81.7991 48.8363 79.9636C50.0586 83.6491 52.3971 87.004 55.7749 89.4672C61.0401 93.3065 67.6045 94.0881 73.3416 92.1466L48.5952 52.7852Z" fill="#009F3A"/>
<path fill-rule="evenodd" clip-rule="evenodd" d="M50.6528 46.3894L93.047 28.3259C88.2349 21.9486 79.7457 18.999 71.718 21.5911C69.7744 22.2188 68.0096 23.1396 66.4361 24.2642C67.6126 20.5621 67.6937 16.4755 66.4111 12.4948C64.4073 6.29421 59.5578 1.8022 53.7729 0L50.6528 46.3894Z" fill="#009F3A"/>
<path fill-rule="evenodd" clip-rule="evenodd" d="M51.9268 50.3097L82.244 85.015C86.8129 78.4651 86.9854 69.477 82.0341 62.6465C80.8347 60.9981 79.4149 59.6054 77.8559 58.4559C81.7389 58.4289 85.6509 57.2378 89.037 54.7829C94.3127 50.9541 97.0794 44.955 96.9983 38.8958L51.9268 50.3097Z" fill="#009F3A"/>
</svg>
