<svg width="101" height="102" viewBox="0 0 101 102" fill="none" xmlns="http://www.w3.org/2000/svg">
<path d="M51.5513 0.00994221C33.7859 -0.337038 17.9894 8.53166 8.70654 22.2183C8.87668 22.4137 9.03002 22.6039 9.16377 22.7757C9.26339 22.8922 9.35293 23.008 9.43464 23.1031C9.48837 23.1076 9.52978 23.1194 9.56952 23.1306C10.231 23.2503 11.221 23.4283 12.0722 24.1995C12.605 24.6836 12.9487 25.222 13.2274 25.6529C13.3454 25.8376 13.5083 26.0928 13.5827 26.1666C13.7271 26.3088 13.9499 26.4761 14.1871 26.6574C14.5677 26.9485 15.0048 27.2759 15.4256 27.7073C15.7799 28.0672 16.1034 28.4315 16.4129 28.7858C16.6261 29.0438 16.8337 29.2794 17.0447 29.5027C17.2059 29.6806 17.4303 29.8776 17.6625 30.0886C18.0129 30.4009 18.4041 30.7563 18.7846 31.1883C19.271 31.7295 19.5485 32.3026 19.7685 32.7609C19.8592 32.9311 19.989 33.1885 20.0405 33.2657V33.2613C20.383 33.6636 20.7098 34.0811 21.0249 34.4796L21.5179 35.0997C21.6058 35.2071 21.8145 35.3885 22.0082 35.5474C22.382 35.8686 22.8499 36.2626 23.2596 36.8072C23.5741 37.2151 23.8282 37.6108 24.0716 38.0009C24.2596 38.2807 24.4281 38.5432 24.596 38.7777C24.99 39.3177 25.2345 39.8718 25.4349 40.3212C25.5407 40.5646 25.6481 40.8232 25.7388 40.9435C25.8261 41.0649 26.0097 41.2586 26.2044 41.4584C26.5312 41.7897 26.9308 42.2049 27.2884 42.736C27.6612 43.2912 27.8789 43.8581 28.0557 44.3109C28.1229 44.49 28.1973 44.6735 28.2583 44.8073C28.3227 44.8549 28.4094 44.9103 28.481 44.9601C28.9416 45.2696 29.6445 45.7436 30.1382 46.5489C30.4135 47.0011 30.5993 47.4527 30.7504 47.8372L31.718 48.4948C33.2951 49.5548 33.9577 49.0035 33.1921 47.2647L24.2927 26.9804C23.5315 25.2387 23.8433 25.0546 24.99 26.5718L38.2597 44.1234C39.4076 45.6423 40.2106 45.3339 40.0495 43.4395L38.1836 21.4208C38.0247 19.5276 38.3868 19.4565 38.9845 21.2558L45.403 42.0415C46.0102 43.8475 46.8055 43.7988 47.176 41.9346L50.7667 20.4991C51.1388 18.6271 51.5088 18.659 51.5916 20.5584L52.5066 42.4786C52.5878 44.3786 53.4239 44.5834 54.3781 42.9398L65.3314 23.9739C66.28 22.3269 66.6203 22.4696 66.0769 24.2963L59.8727 45.2354C59.3326 47.0543 60.0663 47.5238 61.5012 46.2797L77.9346 32.0149C79.3662 30.7675 79.6449 31.0188 78.5402 32.5673L69.0839 45.8309C69.564 45.8169 70.0481 45.799 70.4231 45.5914C71.1926 45.1783 71.6403 44.1234 72.4322 43.7373C73.2263 43.3573 74.2617 43.4899 75.0704 43.1368C75.8696 42.7808 76.4292 41.8317 77.2379 41.5054C78.0505 41.1802 78.8995 40.9457 79.7087 40.6497C80.6002 40.3212 81.4268 39.8125 82.3032 39.517C83.1886 39.2237 84.1254 39.0922 84.9946 38.8252C85.8592 38.5572 86.913 38.9333 87.762 38.6909C88.6866 38.4324 89.3962 37.4446 90.2894 37.2152C91.191 36.9818 92.1625 37.1228 93.0143 36.9213C93.941 36.7008 94.8897 36.7322 95.7543 36.5475C96.6912 36.3449 97.5211 35.8547 98.3701 35.6907C98.5363 35.6577 98.707 35.6448 98.8771 35.6375C92.6175 15.3666 73.9315 0.445906 51.5513 0.00994221Z" fill="#F04431"/>
<path d="M43.8836 97.9309C43.8853 97.8805 43.9032 97.8296 43.9155 97.7848C43.8814 97.716 43.8383 97.6393 43.7969 97.5761C43.5585 97.1479 43.2221 96.5653 43.0626 95.8177C43.0033 95.5328 42.9087 95.2093 42.8024 94.8646C42.6832 94.4857 42.5528 94.0531 42.447 93.5981C42.3144 93.006 42.2987 92.4492 42.2747 92.0042C42.2663 91.7283 42.2551 91.4457 42.2209 91.308C42.1079 90.8301 42.0407 90.3852 41.9814 89.9817C41.9338 89.647 41.8891 89.323 41.8241 89.0672C41.7699 88.8439 41.6568 88.5686 41.5393 88.272C41.3848 87.8841 41.2001 87.4403 41.0737 86.9327L40.941 86.4464L40.5006 84.7792C40.4256 84.5123 40.3125 84.2095 40.1933 83.8933C40.0557 83.5301 39.9029 83.1255 39.7792 82.6906C39.5525 81.9206 39.5794 81.1992 39.6012 80.6843C39.6074 80.527 39.613 80.3435 39.6085 80.2506C39.5145 79.9495 39.3947 79.6316 39.2632 79.2936C39.1261 78.9399 38.9845 78.5767 38.8597 78.1804C38.825 78.1083 38.6929 77.9331 38.5989 77.796C38.3045 77.3941 37.9049 76.8446 37.6609 76.1232C37.5938 75.9195 37.4617 75.6481 37.3151 75.3654C37.1254 74.9894 36.9021 74.5607 36.7325 74.0671C36.5965 73.6809 36.4476 73.2947 36.2893 72.8929L35.9428 71.9841C35.6194 71.1205 35.6792 70.2911 35.7162 69.7477C35.7246 69.6766 35.7296 69.5899 35.7335 69.5143C35.6462 69.328 35.5349 69.1153 35.4017 68.8864C35.1991 68.5092 34.959 68.0867 34.7581 67.5992C34.7083 67.4672 34.5432 67.2349 34.3965 67.0094C34.1469 66.6367 33.8341 66.1744 33.5968 65.6097C33.3992 65.1385 33.2582 64.6902 33.1345 64.2945C33.0394 63.9806 32.9498 63.6828 32.8581 63.4752C32.6941 63.1042 32.5547 62.7421 32.4171 62.3945C32.2744 62.0408 32.1395 61.7073 32.0013 61.4118L31.5832 60.4889C31.3985 60.0726 31.2194 59.6752 31.0353 59.298C30.9704 59.157 30.793 58.9292 30.6217 58.707C30.3475 58.3573 30.0156 57.923 29.7408 57.3807C29.4386 56.7897 29.2948 56.2133 29.175 55.7577C29.1359 55.6094 29.0905 55.4253 29.0558 55.3055C28.9859 55.244 28.8969 55.1729 28.8236 55.1074C28.3994 54.7705 27.8196 54.3032 27.4077 53.5555C26.9986 52.8319 26.8811 52.1021 26.7915 51.5794C26.7691 51.4378 26.74 51.2587 26.7154 51.1748C26.4462 50.7008 26.266 50.2335 26.1171 49.8529C26.0421 49.6548 25.9672 49.4544 25.8961 49.3072C25.8261 49.2558 25.7388 49.1959 25.6655 49.1455C25.1915 48.8315 24.5473 48.4006 24.0722 47.6429C23.7224 47.1056 23.5154 46.5678 23.3475 46.1285C23.2596 45.9108 23.1566 45.6365 23.0895 45.5442C22.9921 45.3942 22.7962 45.1961 22.5886 44.9817C22.2746 44.6622 21.9254 44.2956 21.5997 43.8317C21.2337 43.3028 21.0003 42.7734 20.8106 42.3509C20.7098 42.1292 20.5918 41.8533 20.5263 41.7604C20.2599 41.3961 20.0321 41.0441 19.8312 40.7256C19.6297 40.4117 19.435 40.1134 19.2548 39.8789C19.1624 39.7591 18.9391 39.5717 18.7248 39.3892C18.3879 39.096 17.9631 38.7344 17.5865 38.2632L17.0649 37.6079C16.7604 37.2223 16.475 36.8585 16.189 36.5205C15.7296 35.9804 15.4576 35.4286 15.2472 34.9803C15.166 34.8219 15.0552 34.6009 15.0048 34.5293C14.8062 34.3099 14.5549 34.0821 14.2879 33.8437C14.0014 33.5835 13.6774 33.2857 13.355 32.9516C13.0836 32.6561 12.8384 32.3785 12.5961 32.101C12.3297 31.7898 12.0756 31.4932 11.835 31.2514C11.6604 31.0734 11.3968 30.8809 11.1265 30.6683C10.8064 30.422 10.446 30.1495 10.0872 29.807C9.57851 29.3162 9.24776 28.7929 8.97409 28.3765C8.92093 28.2948 8.86104 28.2047 8.8118 28.1219C8.75695 28.1107 8.70714 28.1034 8.66293 28.0917C8.05739 27.9814 7.14293 27.8152 6.36335 27.1498C6.21896 27.0244 6.0824 26.8963 5.95592 26.7726C2.31599 33.5835 0.172552 41.3345 0.00969522 49.5859C-0.493985 75.5658 18.6862 97.3382 43.8495 100.68C43.8025 100.507 43.7549 100.336 43.7208 100.15C43.5568 99.2477 43.7504 98.4586 43.8836 97.9309Z" fill="#1AAF6A"/>
<path d="M39.4345 65.69C39.519 65.8965 39.6617 66.15 39.8123 66.4304C40.0395 66.8362 40.3014 67.299 40.518 67.8402C40.8549 68.7239 40.7933 69.5538 40.7542 70.1129C40.7502 70.1985 40.7379 70.3088 40.7357 70.3894L40.9937 71.0587C41.1599 71.4835 41.3272 71.9189 41.4912 72.3789C41.5612 72.5703 41.6921 72.8238 41.8248 73.0936C42.029 73.5027 42.2607 73.9593 42.4471 74.5078C42.4303 74.4731 42.4236 74.4541 42.4236 74.4541C42.4639 74.519 42.5943 74.7042 42.6838 74.8397C42.9911 75.2599 43.4063 75.8341 43.6503 76.593C43.7387 76.8661 43.8551 77.1616 43.9744 77.4862C44.1406 77.9115 44.3079 78.3475 44.454 78.8305C44.6929 79.6112 44.6627 80.3438 44.6465 80.8821C44.6336 81.0304 44.6336 81.2319 44.6336 81.3248C44.7092 81.5571 44.8043 81.8251 44.9112 82.105C45.0657 82.499 45.233 82.9428 45.3684 83.4352L45.8285 85.1623L45.9583 85.6576C46.0103 85.8563 46.1116 86.1199 46.2275 86.4002C46.3948 86.82 46.5834 87.2979 46.7244 87.8464C46.8437 88.3444 46.9142 88.8263 46.9802 89.2511C47.0272 89.5762 47.0725 89.8891 47.1347 90.1487C47.2768 90.7576 47.3009 91.3318 47.3177 91.7924C47.3244 92.065 47.3423 92.3437 47.377 92.5015C47.4397 92.7701 47.5315 93.0662 47.6255 93.3863C47.7458 93.7814 47.8807 94.2302 47.9881 94.7099C48.0183 94.7826 48.1096 94.9488 48.1795 95.0675C48.433 95.5079 48.7795 96.1106 48.9306 96.8891C49.1153 97.7941 48.9132 98.6044 48.7823 99.131C48.7588 99.2083 48.7403 99.2984 48.7229 99.3801C48.77 99.5379 48.8254 99.7377 48.8953 99.9487C49.0145 100.291 49.1304 100.68 49.2244 101.109C49.3531 101.114 49.4634 101.124 49.5814 101.124C64.5329 101.416 78.0875 95.1889 87.5349 85.0616C69.985 71.5736 48.433 66.8468 39.2856 65.3688C39.341 65.4751 39.3892 65.5837 39.4345 65.69Z" fill="#2056AE"/>
<path d="M100.848 51.565C100.919 47.727 100.551 43.9835 99.8077 40.3772C99.4949 40.4314 99.1759 40.4824 98.8664 40.5372C98.0017 40.695 97.2311 41.2586 96.4067 41.4209C95.5622 41.5944 94.7541 41.8529 93.9409 42.0404C93.0461 42.2469 92.1394 42.28 91.286 42.5055C90.4146 42.7226 89.4845 42.6499 88.6529 42.8872C87.81 43.1312 87.1038 43.7871 86.3074 44.0445C85.4248 44.3266 84.5003 44.3965 83.6709 44.692C82.8202 44.9909 81.8571 44.9483 81.0562 45.2612C80.2442 45.5852 79.5793 46.2355 78.8199 46.5652C77.9793 46.9239 77.0458 47.0257 76.2729 47.3934C75.4161 47.7992 74.7854 48.5776 74.0114 48.9884C73.2089 49.407 72.408 49.7523 71.6844 50.1771C70.8886 50.6394 70.0251 50.9265 69.3199 51.3809C68.5375 51.8812 67.9964 52.6468 67.3186 53.1276C66.539 53.6861 65.9531 54.3957 65.3039 54.9151C64.5501 55.5251 63.6294 55.8071 63.0435 56.3483C62.4503 56.8884 61.805 57.26 61.3036 57.6596L60.1742 59.4762C59.938 60.3302 59.938 60.9598 59.5754 60.4332L57.1348 64.3563C67.3774 67.4897 79.6482 72.6586 90.5557 81.1523C96.8158 72.9149 100.629 62.6997 100.848 51.565Z" fill="#F89C0E"/>
</svg>
