<svg width="91" height="92" viewBox="0 0 91 92" fill="none" xmlns="http://www.w3.org/2000/svg">
<path d="M57.3714 23.1892C57.3714 16.6572 52.0728 11.3466 45.5301 11.3466C39.0048 11.3466 33.6968 16.6572 33.6968 23.1892C33.6968 29.7159 39.0048 35.0212 45.5301 35.0212C52.0728 35.0212 57.3714 29.7159 57.3714 23.1892Z" fill="#F47520"/>
<path d="M69.6149 69.0602C69.6149 69.0602 58.5362 70.0549 44.5949 60.8042C36.4029 55.3669 33.6549 53.7362 31.9455 52.7922C29.5482 51.4682 26.1255 50.2002 22.1989 50.4029C16.2669 50.7029 11.4429 55.2149 11.4429 61.1536C11.4429 67.0936 16.2575 71.9096 22.1989 71.9096C27.4629 71.9096 31.8349 68.1189 32.7562 63.1229L32.8375 62.8202C32.8735 62.6616 33.0562 62.1909 33.5655 62.2109C34.0989 62.2336 34.8135 63.0109 36.6895 64.4522L38.5535 65.9562C53.7495 78.6269 65.9922 80.1296 68.4149 80.4429C69.7162 80.6122 80.3509 82.0936 91.2642 77.4216V58.9149C88.1122 63.3362 78.8055 68.7002 69.6149 69.0602Z" fill="#006FBA"/>
<path d="M80.1813 37.4913C80.124 37.21 79.8973 36.9926 79.6133 36.9486C79.392 36.9366 79.1733 36.9233 78.9427 36.9206C72.9973 36.842 66.772 36.8273 62.2307 41.37C59.116 44.4846 57.4013 48.4633 57.0613 52.5353V52.5473C57.0613 52.826 57.228 53.066 57.4653 53.1726C59.0413 53.8673 61.1627 54.474 63.388 54.126C65.9467 53.7246 68.6933 52.2446 70.5693 49.4833C70.6667 49.3673 71.004 49.038 71.4587 49.2393C71.808 49.398 71.9067 49.73 71.8293 50.1073C71.74 50.386 71.5987 50.6593 71.4613 50.862C69.2147 54.19 66.9467 55.8806 63.7227 56.3806C63.152 56.466 62.5947 56.5073 62.0427 56.5073C59.3173 56.5073 56.908 55.5206 55.332 54.67C51.876 53.1553 45.9773 48.5873 45.9773 48.5873C35.088 39.7873 25.844 38.2513 25.5413 38.198C15.0493 36.134 6.804 38.2713 0 42.4513V49.178C6.19067 43.8446 14.2787 40.7286 24.916 42.4633C24.916 42.4633 33.4707 43.4353 43.8627 51.274C52.8773 58.2726 58.2027 59.462 58.2027 59.462C64.2467 61.1726 70.8027 59.6486 75.5587 54.8966C80.096 50.3566 80.296 44.0233 80.2147 38.1926C80.212 37.9513 80.1947 37.722 80.1813 37.4913Z" fill="#009457"/>
<path d="M45.5303 35.0212C39.0036 35.0212 33.697 29.7159 33.697 23.1892C33.697 16.6572 39.0036 11.3465 45.5303 11.3465C52.073 11.3465 57.3716 16.6572 57.3716 23.1892C57.3716 29.7159 52.073 35.0212 45.5303 35.0212ZM22.1996 50.4025C26.125 50.2012 29.549 51.4679 31.9463 52.7919C33.6556 53.7359 36.4023 55.3679 44.5956 60.8039C58.537 70.0545 69.6143 69.0599 69.6143 69.0599C78.805 68.7012 88.113 63.3359 91.265 58.9145V-0.000136925H0.000976562V42.4505C6.80364 38.2719 15.0503 36.1345 25.541 38.1985C25.8436 38.2519 35.0876 39.7865 45.977 48.5879C45.977 48.5879 51.877 53.1559 55.333 54.6692C56.9076 55.5212 59.317 56.5065 62.0436 56.5065C62.5943 56.5065 63.1516 56.4665 63.7236 56.3812C66.9476 55.8812 69.2156 54.1905 71.461 50.8625C71.5996 50.6599 71.7396 50.3852 71.8303 50.1065C71.9063 49.7292 71.8076 49.3972 71.4583 49.2385C71.0036 49.0385 70.6676 49.3679 70.569 49.4839C68.693 52.2452 65.9476 53.7239 63.389 54.1252C61.1636 54.4745 59.041 53.8679 57.465 53.1719C57.2276 53.0652 57.061 52.8265 57.061 52.5479V52.5359C57.401 48.4639 59.1156 44.4852 62.2303 41.3705C66.773 36.8265 72.9983 36.8412 78.9436 36.9212C79.173 36.9239 79.3916 36.9372 79.6143 36.9479C79.897 36.9932 80.1236 37.2105 80.181 37.4919C80.1943 37.7212 80.213 37.9505 80.2156 38.1932C80.2956 44.0239 80.0956 50.3572 75.5583 54.8959C70.8023 59.6492 64.2463 61.1719 58.2023 59.4612C58.2023 59.4612 52.8783 58.2719 43.8623 51.2732C33.4703 43.4359 24.9156 42.4639 24.9156 42.4639C14.2796 40.7279 6.19031 43.8439 0.000976562 49.1772V92.1172H91.265V77.4225C80.3503 82.0945 69.717 80.6119 68.4143 80.4425C65.993 80.1292 53.749 78.6265 38.5543 65.9559L36.689 64.4519C34.8143 63.0105 34.0996 62.2332 33.565 62.2119C33.057 62.1905 32.8743 62.6612 32.837 62.8212L32.757 63.1225C31.8356 68.1185 27.4623 71.9092 22.1996 71.9092C16.2583 71.9092 11.4436 67.0945 11.4436 61.1545C11.4436 55.2159 16.2676 50.7039 22.1996 50.4025Z" fill="#FFD600"/>
</svg>
