<svg width="97" height="108" viewBox="0 0 97 108" fill="none" xmlns="http://www.w3.org/2000/svg">
<path d="M96.7138 -3.56237e-05C71.5557 24.8049 41.0308 30.1057 41.0308 30.1057C41.0308 48.4685 37.8864 62.0347 33.3462 72.0735C81.1732 47.6749 96.7138 -3.56237e-05 96.7138 -3.56237e-05Z" fill="#7AC326"/>
<path d="M68.8961 59.6253C56.3415 73.2489 38.8797 86.6258 15.1949 94.2839H15.1928C7.11558 99.6389 0 100.057 0 100.057L8.12402 107.602C46.8601 100.998 68.7141 77.3285 81.0198 53.8639C76.9626 55.9638 72.8788 57.886 68.8961 59.6253Z" fill="#D9172A"/>
<path d="M81.0197 53.8639C86.1631 44.0687 89.6352 34.3107 91.9808 25.8389C87.7268 34.5363 80.357 47.1834 68.896 59.6252C72.8787 57.886 76.9625 55.9637 81.0197 53.8639Z" fill="#173E7D"/>
<path d="M91.9811 25.8389C96.1021 10.911 96.7138 -3.56237e-05 96.7138 -3.56237e-05C96.7138 -3.56237e-05 81.1732 47.6749 33.3462 72.0735C33.3536 72.0714 49.941 67.9003 68.8963 59.6253C80.3573 47.1834 87.7271 34.5363 91.9811 25.8389Z" fill="#0E88D3"/>
<path d="M68.8962 59.6253C49.9409 67.9003 33.3535 72.0714 33.3461 72.0735C28.2411 83.376 21.3574 90.1906 15.1929 94.2839H15.195C38.8798 86.6259 56.3416 73.249 68.8962 59.6253Z" fill="#FAB20B"/>
</svg>
