<svg width="120" height="96" viewBox="0 0 120 96" fill="none" xmlns="http://www.w3.org/2000/svg">
<path fill-rule="evenodd" clip-rule="evenodd" d="M87.1315 0.257501C87.6195 0.320753 88.0546 0.516648 88.4406 0.821411C88.6492 0.807993 88.7293 1.16374 88.9984 1.03417C89.225 1.38915 89.6026 1.42633 89.8786 1.70503C89.8157 1.9013 90.104 1.73838 90.0338 1.93657H90.1097V2.47173C90.2094 2.52616 90.3259 2.49549 90.4425 2.50469V2.79067C90.8611 2.77764 91.1766 3.02759 91.5753 3.05289C91.7578 3.15256 91.7463 3.39253 91.9303 3.40518C92.056 3.49488 91.982 3.65743 92.1384 3.72375C91.9529 4.05343 92.5168 4.07873 92.3539 4.39116C92.5478 4.45672 92.3918 4.65606 92.5735 4.71317C92.6107 5.03864 92.8001 5.28819 92.9983 5.54005C93.0891 5.96135 93.5706 6.23047 93.5081 6.7154C93.7596 7.08764 93.7435 7.58522 93.9248 8.00039V9.30186C93.6802 9.34097 93.8455 9.6971 93.7926 9.88686C93.722 10.1015 93.4867 10.2518 93.5867 10.5309C93.5971 10.5776 93.6599 10.5443 93.6891 10.5577C93.6891 10.6731 93.6599 10.8092 93.7926 10.8759V11.7032C93.6891 11.8787 93.5867 12.062 93.4771 12.2368C93.5453 12.4062 93.298 12.2908 93.3809 12.4553C93.2869 12.5653 93.093 12.6293 93.1305 12.7988H93.045C93.1156 13.1342 92.8327 13.3255 92.784 13.6241C92.6272 13.6812 92.6567 13.9438 92.46 13.9438C92.5478 14.093 92.3117 14.1098 92.3539 14.2432C92.1262 14.2827 92.0292 14.6285 91.7696 14.6113C91.4288 14.7964 91.481 15.189 91.1333 15.3856C91.259 15.6747 90.8611 15.6007 90.9704 15.8633C90.8438 15.943 90.7239 16.0431 90.5751 16.0431C90.3029 16.2182 90.0338 16.3785 89.7743 16.5337C89.7881 16.6863 89.6087 16.6725 89.529 16.7469C89.154 17.2073 88.7021 17.4703 88.1884 17.629C87.8223 17.7359 87.3841 17.7072 87.0728 17.9778C86.7964 18.1082 86.4376 18.0177 86.223 18.2937C86.047 18.4888 85.7346 18.3401 85.4984 18.4298C84.4427 18.9312 83.2911 18.36 82.1115 18.5099C81.9064 18.3742 81.2985 18.6023 81.5039 18.1082L81.1597 18.0514V17.5466C81.0171 17.56 80.8771 17.7359 80.7269 17.841C80.6609 17.7317 80.6372 17.6029 80.4585 17.629C80.3251 17.7555 80.1691 17.7888 80.1239 17.9778C80.0204 18.0177 79.9863 17.9081 79.923 17.8644C79.9636 17.7072 79.767 17.6359 79.6884 17.5193C79.476 17.5071 79.4193 17.8643 79.1525 17.7317C79.1306 17.6458 79.0976 17.5757 79.0279 17.5193C78.9669 17.6029 78.8385 17.6458 78.8876 17.762L78.4298 18.0767H77.9165C78.2274 17.9157 78.1155 17.5895 78.1343 17.3104C78.1937 17.3242 78.2171 17.2774 78.2497 17.2479V16.6472L77.9844 16.2915C77.8552 16.3348 77.9602 16.587 77.7713 16.5065C77.7092 16.5476 77.6697 16.6568 77.5803 16.6165C77.5596 16.4141 77.7555 16.2278 77.6861 15.9721L77.557 15.9123C77.9165 15.69 77.4067 15.5436 77.557 15.2491C77.463 15.0793 77.307 14.9298 77.2372 14.7473C77.2039 14.6967 77.1644 14.7274 77.1215 14.7182C77.1644 14.5622 77.0398 14.359 77.2372 14.2593V13.3565C77.0011 13.2826 77.2449 13.0108 77.0222 12.9276C77.1088 12.6454 76.7669 12.5324 76.8819 12.2368C76.7029 12.177 76.8585 11.9815 76.6703 11.9178C76.6082 11.7085 76.63 11.4731 76.4337 11.3267C76.4104 11.1715 76.4905 10.966 76.3184 10.8759C76.3414 10.3783 76.2862 9.84699 76.387 9.38773C76.4805 9.14201 76.4104 8.8338 76.4337 8.5551C76.6377 8.46961 76.5499 8.25915 76.5664 8.10658C76.6703 8.1338 76.7163 8.05367 76.7864 8.00039V7.89229C76.9156 7.87082 76.9237 7.58522 77.1215 7.59596L77.1813 7.54229C77.1644 7.52964 77.1548 7.50242 77.1215 7.51891V7.43917C77.1813 7.44913 77.2039 7.41233 77.2372 7.38281C77.1123 7.13057 77.463 7.23062 77.3442 6.98106C77.5355 6.90516 77.4167 6.69853 77.4462 6.55976C77.2039 6.44016 77.463 6.03151 77.2372 5.85593C77.3768 5.55385 77.5972 5.27057 77.7713 4.98612C77.7555 4.94855 77.7141 4.95277 77.6861 4.95277C77.726 4.80978 77.5972 4.58016 77.7851 4.50387C77.7141 4.34785 77.9817 4.33825 77.9016 4.18185C77.9844 4.06837 78.1642 3.9967 78.1343 3.83262C78.2731 3.88322 78.2205 3.72375 78.2731 3.67161C78.3727 3.54089 78.5491 3.45848 78.5728 3.3059C78.8949 3.36302 79.0608 2.97736 79.2556 2.79067C79.1759 2.60858 79.7045 2.45524 79.3725 2.36631C79.287 2.14588 79.486 2.10793 79.6017 2.0213C80.0108 1.49266 80.5314 1.27913 81.0497 1.03417C81.4871 0.951747 81.9218 0.872397 82.355 0.788443C82.5102 0.759309 82.6436 0.646608 82.8422 0.684943C83.1082 0.257509 83.6292 0.433462 83.9581 0.117582C84.1544 0.117582 84.366 0.150939 84.5082 0.0175332C85.3857 0.094203 86.4154 -0.184884 87.1315 0.257501Z" fill="#E31A3A"/>
<path fill-rule="evenodd" clip-rule="evenodd" d="M120 92.4175C120 94.1809 98.6042 95.6047 72.2144 95.6047C45.8228 95.6047 24.4238 94.1809 24.4238 92.4175C24.4238 90.6614 45.8228 89.2361 72.2144 89.2361C98.6042 89.2361 120 90.6614 120 92.4175Z" fill="#009FE0"/>
<path fill-rule="evenodd" clip-rule="evenodd" d="M55.272 13.3987C58.2376 13.8134 61.1737 15.0034 63.4715 16.5694C64.0289 16.6671 64.5376 16.5141 64.9827 16.2573C64.7373 15.4086 63.8234 14.5905 63.0594 14.1002C61.2308 13.3063 59.1393 13.1407 57.5902 11.6598C57.3007 12.2801 56.6295 12.3034 56.0111 12.3103C54.9726 12.1374 54.2194 11.2512 53.0701 11.3148C52.735 11.4106 52.7182 11.7851 52.4199 11.9646C52.3962 12.1206 52.4832 12.3188 52.3394 12.433C52.2666 12.6879 52.2999 12.9977 52.4598 13.2032L55.272 13.3987Z" fill="#009456"/>
<path fill-rule="evenodd" clip-rule="evenodd" d="M90.2226 62.7879L91.429 63.9426C91.7533 64.3279 91.8959 64.6736 91.6701 65.2536C93.0816 67.014 96.1342 73.8134 97.3122 76.002L97.4475 75.5366C97.2102 73.422 96.3868 73.8065 96.572 71.8649C95.8819 71.4528 96.0947 70.2978 95.6224 69.7373C95.0777 68.4588 94.8381 67.1968 93.9249 66.0633C93.9016 65.8513 93.5082 65.8785 93.3618 65.7094C93.3748 64.3278 92.1715 62.0366 91.5516 60.9057C91.2687 60.0811 90.5392 58.9153 90.2333 58.0754C89.3734 55.5821 86.3852 51.8391 86.3028 50.5422C84.9642 49.5467 84.5463 47.367 83.586 46.1034C83.121 45.0538 82.3551 44.1196 81.5673 43.2068C81.325 42.6008 80.6407 42.1956 80.2915 41.6374C80.0109 41.3185 79.9741 40.8101 79.5908 40.5955C79.2496 40.702 79.1081 40.3658 78.7742 40.4724L77.6525 38.7815C77.2374 38.1585 76.8103 37.4746 76.0655 37.2791C75.6859 37.023 75.3789 37.6291 75.096 37.1181C74.6505 36.4657 74.5716 35.6786 74.1223 35.0304C73.8769 34.8126 73.7619 35.2872 73.5196 35.0611C73.3989 34.5991 73.4625 34.5221 73.3034 34.0824C72.5827 34.0502 72.0315 33.5959 71.5274 33.0688C71.09 32.8326 70.7419 32.1649 70.2451 32.3715C69.6114 32.6563 69.7299 31.867 69.3354 31.5645C69.2813 31.2989 69.1525 31.0531 68.9804 30.8373C68.6653 30.8116 68.755 30.3022 68.3686 30.4528C68.1631 30.1504 67.9569 30.5019 67.7487 30.5222C67.4666 30.2167 67.6521 29.7321 67.5965 29.3235C67.3933 29.2606 67.5659 29.0402 67.3565 28.9777C67.0142 29.0716 66.647 29.0314 66.4672 29.4396C65.6008 29.5198 65.0488 28.666 64.6574 27.9691C64.3641 27.9952 64.0061 27.892 63.8109 28.1585C63.5346 28.201 63.0692 28.2942 62.9975 27.892C62.8342 27.3741 62.5064 26.9034 62.1001 26.5576C61.6623 26.1957 61.1283 26.2019 60.6962 25.9174C60.3022 25.6682 60.1695 25.3263 59.6604 25.1392C59.2357 24.997 58.7638 24.9771 58.3375 24.8475C57.2702 24.5151 56.1351 24.402 55.0464 24.0371C54.7367 23.911 54.6681 23.8584 54.3461 23.7687C54.0298 23.9807 53.6779 24.1904 53.2593 24.044C52.7973 23.7258 52.2376 23.6196 51.8758 23.0814L51.64 23.9343L50.787 24.0007C50.255 24.044 49.8298 24.3403 49.3928 24.6286C48.7376 24.652 48.2194 24.353 47.7325 23.9673C47.4423 24.4925 46.9022 24.7375 46.4606 25.0503C46.3107 25.1496 46.0596 25.0077 45.9549 25.2094C45.6107 25.0694 45.4773 25.4585 45.1388 25.3186C45.0357 25.5946 44.5342 25.0303 44.5342 25.4026C44.5342 25.9002 43.4885 26.1359 43.5049 25.8404C43.2818 26.2824 43.4884 26.7175 43.0641 27.0529C42.7984 27.0882 42.6715 26.7754 42.4825 26.6373C41.6886 26.6312 40.9978 26.9034 40.2369 26.9824L39.9992 27.5175C39.5568 27.7471 39.5269 28.3532 39.3084 28.7554L39.1125 28.6423C38.8745 28.6093 38.6713 28.6833 38.531 28.8316C38.0664 28.6607 38.1499 29.2932 37.7578 29.2181C37.6313 29.3699 37.3365 29.4557 37.1436 29.5784C36.8945 29.6451 36.7453 29.9671 36.4766 29.9575C36.2405 30.1335 36.1611 30.4352 35.9756 30.6905C34.6204 32.5839 33.7966 31.8747 33.6076 31.7336C33.7107 31.0432 34.5208 30.6019 34.8888 30.0641C35.3373 29.407 35.9016 29.1571 36.4356 28.6423C36.6583 28.4241 36.7285 28.1178 36.9704 27.915C37.233 27.6827 37.6152 27.6007 37.8678 27.3473C38.0426 27.1779 38.0664 27.1656 38.2929 26.9789C39.2524 26.1225 40.5896 25.5314 40.8318 25.1929C41.081 25.3458 41.357 25.0829 41.6323 25.1392L42.1314 24.9464C42.3967 24.402 43.2228 24.131 43.6713 23.7956C43.858 23.9907 44.1022 24.0708 44.3909 24.0313C44.959 23.8339 45.5578 23.9581 45.8798 23.4168C46.1842 23.0745 46.8086 23.1174 47.1517 23.2202C47.2142 23.0385 47.2767 22.8587 47.4661 22.723C47.7578 22.491 48.1565 22.4669 48.5456 22.491C48.7982 22.7793 49.2717 22.5827 49.5584 22.805C49.8428 22.795 50.1649 22.8456 50.3615 22.6103C50.5804 22.4301 50.5804 22.1479 50.674 21.9095C51.7492 21.9854 53.0009 21.6634 53.7745 22.491C55.2887 21.8765 57.34 22.0786 58.6775 22.925C60.1615 23.4502 61.507 24.353 62.93 25.0077C63.4422 25.0303 63.8171 25.3949 64.2882 25.5045C64.8866 25.9335 64.8402 26.6178 65.3819 27.0625C65.6112 27.0391 65.8795 27.1215 66.0781 26.9824C69.2035 28.7688 72.1181 31.0731 75.0032 33.4464C78.4572 36.399 84.0736 43.8773 86.3714 47.5341C86.6601 47.7453 87.0929 48.0313 87.1416 48.4204C87.3543 48.5856 87.6027 49.0111 87.6507 49.2511C87.9424 49.7284 89.8158 52.74 90.6619 54.2212C90.898 54.6326 91.24 54.8649 91.7579 55.3329C90.3629 51.4381 87.5414 47.2711 85.4947 43.6262C83.453 40.5752 81.8264 37.3784 79.2557 34.5608C78.9877 34.0371 78.4951 33.6239 78.0213 33.2513C77.5099 32.6996 77.4068 31.6581 76.4415 31.7336C76.0417 30.3689 74.8932 29.1107 73.6492 28.2942L73.2371 28.2152C73.1869 28.3168 73.3034 28.3532 73.3533 28.4107C73.3425 28.671 73.4062 28.962 73.1179 29.1107C72.5996 28.9486 72.5655 28.3935 72.102 28.0979C70.9493 27.2446 69.9234 26.0895 68.7377 25.2719C68.4778 24.8115 68.0765 24.4764 67.7322 24.0835C66.7949 23.5698 65.8162 23.1581 64.9165 22.5666C64.68 22.1978 64.1399 21.9256 63.9033 21.4763C63.6116 21.4472 63.2432 21.5798 63.014 21.3751C61.6899 21.1991 60.7733 20.0495 59.6447 19.3997C59.1724 19.4158 58.9206 18.9048 58.4165 19.011C57.9154 18.6192 57.1215 18.9504 56.5469 18.7442C55.9419 18.8883 55.6042 18.3689 55.1917 18.048L55.005 18.2328C54.4473 18.5491 53.5184 18.8078 52.948 18.3129C52.3043 18.2462 51.3912 18.0208 50.9894 18.7779C50.4543 18.7185 49.9763 18.5663 49.5113 18.3497C48.1841 18.3865 47.1376 18.8707 45.4136 19.1068C44.4541 19.7014 43.6245 19.6746 42.6654 20.2423C42.1901 20.508 41.6491 20.5977 41.2474 21.0263C40.8556 20.9864 40.401 21.328 40.1184 20.9864C40.1318 20.6943 40.493 20.5114 40.516 20.2258C41.2002 19.8639 41.8784 19.5477 42.4024 18.9684C43.1296 18.8078 43.687 18.2328 44.4415 18.1136C44.4415 18.1097 44.4415 18.1097 44.4415 18.1082C44.5342 18.0768 44.6312 18.048 44.7232 18.0246C45.1622 17.9284 45.6107 17.882 46.0354 17.7728C50.3987 16.6335 53.9037 16.7389 56.8585 17.4607C58.1332 17.6789 59.3123 18.1136 60.4931 18.5491C63.98 20.0836 67.2527 22.0751 70.2079 24.8877C71.1118 25.664 72.6989 27.2718 72.9239 27.0882C73.1474 26.9118 72.3616 26.1754 72.3439 25.6939C72.1082 25.3263 72.0848 25.2094 71.7256 24.9276C71.4676 24.9702 71.2475 23.914 71.0194 24.131C69.5941 22.713 68.2674 21.5039 66.7716 20.2423C64.4071 18.3129 61.8578 16.903 59.1092 15.9124C57.8108 15.6801 56.5771 15.2779 55.1917 15.2193C54.6504 15.0602 54.236 14.5622 53.6518 14.4825C52.915 14.4951 52.0417 14.3882 51.4441 14.867C50.5647 14.2276 49.3928 14.7543 48.4252 14.867C48.2355 14.9034 47.9671 15.1162 47.7578 15.1832C47.4891 15.2641 47.2081 15.3094 46.9309 15.3351C46.3735 15.3761 45.81 15.3017 45.2714 15.1461C45.2982 15.7464 44.1421 15.8131 43.7583 15.9227C43.6211 15.9626 43.2393 16.2083 43.2584 16.1757C42.3591 16.0784 41.8147 16.6005 41.2002 17.1487C40.7521 17.0939 40.0713 17.3105 40.1943 16.5208C40.2369 16.2608 40.4535 16.1255 40.6498 15.9722C40.7391 15.9001 40.879 15.8334 40.9354 15.7464C40.9649 15.7238 41.0745 15.5145 41.0504 15.534C41.081 15.5145 42.1609 14.9502 42.1609 14.9502C42.8118 14.8808 43.5049 14.2364 44.0961 14.7543C44.203 14.2828 44.7075 14.1701 45.0617 14.024C45.6206 14.0673 46.0416 13.8411 46.3812 13.3988C47.3035 13.1871 48.3397 13.2033 49.3614 13.2033C49.5975 12.9752 49.9993 13.1565 50.2822 13.0507C50.4846 12.9242 50.8687 12.8379 50.8227 12.5489C51.0815 12.2008 50.8104 11.6434 51.0523 11.3149C50.5647 10.71 50.046 11.4402 49.5113 11.4241C49.3614 11.2512 49.1325 11.0952 49.0493 10.8821C47.6551 11.0753 46.3479 11.428 44.9494 11.6127C44.7232 11.7553 44.3721 11.9815 44.2586 11.5863C43.5785 11.3149 43.1657 11.8512 42.6984 12.1966C42.5289 12.1713 42.2874 12.2606 42.1609 12.1207C41.0346 13.0108 39.6001 13.1565 38.449 13.9776L38.3727 13.8599C38.084 13.8806 37.9165 13.5387 37.7114 13.4386L37.6485 13.5149C36.459 14.2889 34.9854 14.366 33.6467 14.7965L32.9567 15.2193C32.1367 15.7736 32.4982 16.9455 31.6418 17.3465H29.1592C28.8365 17.3672 28.8583 17.7413 28.5835 17.892C28.5911 18.137 28.6068 18.3972 28.427 18.5824L26.9174 18.8883C26.3428 19.5358 25.7137 19.9966 25.1 20.554C23.6103 21.5242 22.3046 22.9553 20.8478 23.9673C20.5952 24.997 19.4797 25.2193 18.7126 25.664C18.4669 25.9335 18.1955 26.2084 18.1387 26.5982C17.9087 26.8033 18.3108 27.4182 17.7933 27.3653C17.4307 27.8322 17.2179 28.3605 17.0853 28.9156C16.8691 29.0517 16.6736 29.284 16.391 29.3074L10.3146 37.3822C10.425 40.3187 7.6959 42.0794 7.10516 44.7376C5.28464 46.8893 4.38607 49.4232 3.15974 51.8165L0.425688 59.9446C0.23593 62.3099 -0.0941359 64.0917 0.0254691 66.5954C0.172292 67.2689 0.354385 68.4918 0.526509 69.1082C0.860023 70.563 2.01467 71.6652 3.13021 72.7918C4.82078 74.7239 7.08523 75.7356 9.62109 75.1594C11.0065 74.5966 12.4142 74.1059 13.6493 73.2158C14.735 72.7278 15.8869 72.3836 16.7778 71.4336C17.4836 70.7463 17.9321 69.9558 18.3239 69.1546C19.0189 66.7284 20.1927 64.5 21.1526 62.1918C22.0125 60.0964 23.5704 58.2916 24.6062 56.2664C24.6158 55.8171 24.7224 55.397 24.7549 54.9477C25.2441 53.9387 26.1292 53.0819 26.493 52.0166C26.3125 51.399 26.9803 51.1015 27.3061 50.7343C27.3652 50.6707 27.497 50.6852 27.5373 50.7849C27.6335 50.8014 27.7213 50.9409 27.8064 50.8543C28.0195 50.1892 27.7044 49.3178 28.082 48.7259C28.8529 48.2414 29.3402 47.4475 29.8585 46.7432C30.2606 45.5851 31.1465 44.6088 31.8638 43.5802C32.6305 43.2015 32.5956 42.3121 33.0732 41.7214C35.1107 39.7471 37.2625 37.8503 39.262 35.9148C39.7792 35.5192 40.391 35.3559 40.8556 34.8295C41.2175 34.1307 42.0172 33.9283 42.5991 33.4736C45.8526 31.5948 52.8751 28.8496 61.6964 32.3581C70.5414 35.8784 80.561 44.9311 90.2226 62.7879Z" fill="#009456"/>
<path fill-rule="evenodd" clip-rule="evenodd" d="M84.6325 38.4843C84.8947 39.0237 85.3635 39.5757 85.5552 40.1469C85.615 40.3026 85.7116 40.8561 85.4525 40.8994C85.1504 40.9519 84.6325 39.7471 84.5063 39.5493C83.7856 38.3605 83.0389 37.176 82.2649 36.0228C80.6614 33.6166 78.9048 31.2988 76.9762 29.1402L76.7868 28.7852L72.4795 24.0006C70.3972 21.9095 68.1634 20.1855 66.0132 18.2696C65.5934 17.9874 65.1384 17.7359 64.7378 17.4135C64.8164 17.2012 65.0529 17.049 65.2016 16.8757C65.7575 16.9646 66.2313 16.6166 66.6798 16.9217C72.3074 20.8089 81.0861 31.305 84.6325 38.4843Z" fill="#009456"/>
<path fill-rule="evenodd" clip-rule="evenodd" d="M109.036 60.8183C109.634 61.4459 110.062 62.206 110.504 62.8968C110.418 63.4715 111.28 63.7065 111.486 64.168C111.881 64.8059 112.225 65.4568 112.546 66.1246C113.076 66.9768 113.373 67.9356 114.019 68.7502C114.026 68.9058 114.086 69.0488 114.166 69.1788C114.206 69.8132 114.923 69.9052 115.239 70.4239C115.239 70.5631 115.222 70.7064 115.316 70.7984C115.341 70.9556 115.405 71.1875 115.239 71.2964C116.241 72.5358 116.738 73.9898 117.326 75.4044C117.439 76.002 117.825 76.4801 117.993 77.0604C118.252 77.2947 118.272 77.6263 118.373 77.9345C118.505 78.0376 118.592 78.2297 118.79 78.1637C118.751 77.4465 118.389 76.86 118.17 76.2033C118.02 76.0377 117.848 75.8724 117.917 75.6033C117.954 74.9405 117.396 74.5108 117.293 73.9032C116.776 73.3883 117.123 72.512 116.342 72.1003C116.355 71.9443 116.355 71.8059 116.244 71.702C116.355 71.2339 116.119 70.9855 115.922 70.6401C115.812 70.4132 115.763 69.6967 115.756 69.4237C115.416 68.9691 115.239 68.3615 114.858 67.9356C114.89 67.4963 114.67 67.1536 114.545 66.7878C114.365 66.5226 114.049 66.3201 113.907 66.0384C113.365 65.5136 113.658 64.8853 113.116 64.3746C113.169 64.168 112.951 64.0783 112.871 63.9192C112.559 63.2825 112.05 62.658 111.775 62.0903C111.407 61.5578 111.032 61.0146 110.663 60.4699C110.702 60.0439 110.551 59.6924 110.275 59.3934C109.833 59.3229 109.567 58.8299 109.209 58.5405L109.292 58.2917C109.113 58.1824 109.013 57.8408 108.733 57.9635C108.547 57.8926 108.674 57.681 108.647 57.5449C107.554 56.9262 107.495 55.6312 106.536 54.9619C106.337 54.8112 106.449 54.5272 106.32 54.3386C106.399 54.0476 106.095 53.9153 105.938 53.7172C105.795 53.6823 105.59 53.8049 105.513 53.616C105.277 53.6823 105.291 53.335 105.065 53.3649C105.088 53.1954 104.859 53.1383 104.931 52.9428C104.494 52.6971 104.311 52.1358 103.813 51.943C103.704 51.9568 103.587 52.1358 103.515 51.943C103.221 51.7966 102.777 51.4991 102.817 51.1104C102.79 50.8014 102.455 50.9582 102.266 50.9103C102.021 50.8141 102.197 50.5553 102.11 50.3885C102.075 50.2827 101.957 50.1394 101.829 50.1394C101.857 49.9097 101.599 50.0573 101.485 50.014C100.881 49.7882 100.748 49.061 100.156 48.8122C100.036 48.7689 99.8574 48.762 99.7784 48.9119C99.6105 49.0775 99.4595 48.9456 99.3269 48.7884C99.0202 48.7689 98.7756 48.5937 98.5605 48.3307C98.5398 48.1022 98.2029 48.1808 98.0518 48.0313C97.611 47.5774 96.5349 47.7304 96.0803 47.2516C95.6222 46.7736 94.6389 47.1197 94.2471 46.4443C94.1267 46.7302 94.0903 46.4285 93.8542 46.4588C93.6889 46.2691 93.0518 46.4316 93.1216 46.0962H92.8272L92.7838 46.4251L91.1496 46.3649C91.0795 46.3024 91.0392 46.1889 90.9235 46.2315C89.9206 44.7652 91.6936 45.5817 91.6936 45.5281C91.6936 45.5254 91.6936 45.2524 91.6936 45.2524C91.9198 45.2961 91.7461 45.0504 91.9301 45.0006C92.5009 45.2961 93.3976 44.8051 93.8289 45.433C94.2701 45.3191 94.3073 45.5852 94.793 45.5852C95.276 45.6454 95.8104 45.6377 96.2125 45.8869C96.9999 46.0659 97.5976 46.7268 98.4283 46.8127L100.692 48.0386C101.782 48.8486 102.957 49.4072 104.026 50.2666C103.995 50.4119 104.152 50.4683 104.249 50.5193C105.035 50.9306 105.553 51.6766 106.101 52.3678C106.778 53.5155 108.099 53.9031 108.758 55.0474C109.185 55.7815 109.751 56.4324 110.207 57.1385C110.519 57.607 110.702 58.1483 110.998 58.6202C111.336 59.1657 112.154 59.0185 111.762 59.6361C111.983 59.6924 112.139 59.8277 112.199 60.2352C112.4 60.8118 112.838 61.3075 113.02 61.8875C113.987 63.274 115.222 65.9445 115.48 65.818C115.74 65.693 115.009 63.7935 114.469 62.8735C114.019 61.5919 113.176 60.4852 112.559 59.2681L112.517 58.9664C112.366 58.7659 112.412 58.4872 112.193 58.3108C111.918 57.3126 111.055 56.5474 110.49 55.6688C110.22 54.8921 109.53 54.2922 109.337 53.4895C108.909 52.8964 108.627 52.1454 107.964 51.7395C107.95 51.2722 107.406 51.036 107.365 50.5848C107.085 50.5553 106.957 50.0707 106.612 50.2873C106.699 50.4993 106.493 50.5791 106.383 50.7117C105.749 50.1213 105.191 49.5226 104.508 49.0541L104.461 48.9119C103.995 48.8287 103.715 48.3165 103.335 48.0087C103.272 47.9248 103.285 47.7576 103.133 47.7791C102.538 46.7134 101.313 46.7368 100.506 45.9601C100.151 45.9137 100.181 45.433 99.8114 45.4088C98.8687 45.2141 98.2029 44.3535 97.2813 44.1104C96.9041 43.6887 96.2497 43.9548 95.731 43.8774C95.5923 43.7585 95.4493 43.6263 95.4788 43.453C95.1537 43.6427 94.7029 43.5132 94.3073 43.5557C94.167 43.4277 94.024 43.3138 93.8289 43.3299C93.6889 43.1394 93.4076 43.2839 93.2814 43.1083C93.089 43.1394 92.846 43.016 92.729 43.2015L91.8025 43.0048C90.4826 42.9719 89.091 42.8944 87.9452 43.3606C87.2916 43.3736 86.8899 44.0169 86.1193 43.7777C86.0469 43.6968 85.9568 43.6125 85.8498 43.6094C85.6835 43.5093 85.5903 43.3437 85.5546 43.1743C85.7042 42.8695 86.1094 42.8231 86.4739 42.8557C88.2174 41.7563 91.5215 41.7379 92.5105 41.8901C94.19 41.9725 95.7812 42.4248 97.2318 43.0489C97.7264 43.3966 98.3079 43.5093 98.7833 43.8774C100.333 44.5919 101.691 45.7604 103.082 46.861C103.601 47.4942 104.208 48.0842 104.813 48.6757H105.035C105.214 48.4925 105.098 48.1693 105.134 47.9102C105.035 47.8396 104.978 47.6599 104.836 47.7097C104.75 47.4778 104.517 47.6227 104.357 47.5836C103.903 47.0822 103.468 46.5777 103.06 46.0494C102.455 45.5181 101.881 44.9143 101.21 44.5298C101.03 44.2703 100.771 43.752 100.333 43.8774C99.4833 42.8937 98.3443 42.5732 97.3288 42.002L97.1786 41.7563L96.1274 41.4994C95.34 41.3783 94.658 41.0191 93.8055 41.0835C93.3409 40.6281 92.6136 40.7868 91.9819 40.7531C91.4977 40.9823 90.8334 40.7178 90.373 40.9823C90.0571 40.8198 89.7009 40.7868 89.3732 40.6545C89.4062 40.8171 89.3433 40.9401 89.2582 41.0505C88.6916 41.0594 88.1001 41.1138 87.5734 41.2825C87.5266 41.2587 87.4864 41.2357 87.4745 41.1728C87.4212 41.3185 87.274 41.2227 87.1724 41.2529C87.0394 41.4718 86.794 41.3656 86.6372 41.4994C86.3072 41.2986 86.0162 41.0835 86.2454 40.8171C86.9117 40.6576 87.5511 40.4456 88.2247 40.295C88.5333 39.9177 89.1209 40.2129 89.4717 39.9476C89.7987 40.2037 90.3227 39.9764 90.6773 40.1523C91.2761 40.2497 91.8473 40.1297 92.4017 40.0258C92.448 40.0373 92.4814 40.0423 92.5351 40.0423C93.0756 40.0665 93.5452 40.2129 94.0903 40.2129L94.1513 40.1865L95.4493 40.505C95.7813 40.5752 96.1435 40.5622 96.4092 40.7845C96.8102 41.0893 97.409 40.985 97.8142 41.3296C98.84 41.6098 99.553 42.6568 100.655 42.7526V42.3739C100.608 41.9675 100.111 41.8901 99.8812 41.5274C99.4595 41.4247 99.1781 41.0103 98.7522 40.9072C98.5701 40.7021 98.3079 40.6745 98.0844 40.5752C97.7605 40.3095 97.3814 40.173 97.0785 39.8583C96.7776 40.1159 96.3547 40.0799 95.9472 40.0799C95.5451 39.731 95.1445 39.3573 94.5821 39.4006C94.3073 39.3097 93.978 39.2499 93.8783 39.2365C93.5866 39.1932 93.1641 39.0782 92.8091 39.0905C92.6842 39.0479 92.5285 39.1012 92.3978 39.0782C92.3116 39.3301 92.1095 39.0176 91.9301 39.0782L91.6936 38.9479C91.2397 38.9877 90.4749 38.688 90.0736 38.8677C88.5264 38.8118 85.8778 39.2795 84.6415 39.6026C84.4514 39.6122 84.7615 39.5493 84.7485 39.4259L84.4291 39.7472C84.303 39.7272 84.206 39.7809 84.1144 39.8583H82.4932C82.0217 39.8641 82.0857 40.4069 81.8181 40.6545C81.4344 40.9823 80.9 40.9371 80.4454 41.0835C79.9129 40.9305 79.3758 41.0103 78.9419 41.2986C78.8947 41.4718 78.7678 41.6213 78.6122 41.7563C78.5187 41.7701 78.4569 41.7237 78.3852 41.6574C78.0073 41.6746 77.6523 41.7563 77.3866 42.0794C77.1413 42.1132 77.0221 42.4942 76.7161 42.4275C76.0415 42.9416 75.2023 43.0049 74.5878 43.6297C73.9978 44.0019 73.4466 44.465 72.8581 44.8802C72.7884 44.6954 72.5994 44.8219 72.4667 44.7844C72.4157 44.8219 72.4522 44.953 72.3437 44.9143V45.0006C72.1344 45.1401 72.1018 45.3467 72.0945 45.5564C71.9511 45.5281 71.9511 45.7075 71.8894 45.7834C71.7713 45.8202 71.6866 45.9371 71.5359 45.9045C71.2542 46.0291 71.3638 46.3212 71.3366 46.5577C70.7731 47.1316 70.0961 47.4475 69.4601 47.8822C68.5945 48.3806 67.7849 48.9613 67.0071 49.6625C66.8357 49.8749 66.7081 50.0968 66.4861 50.2873C66.0778 50.5848 66.2365 51.1226 65.8056 51.4132C64.2776 53.2433 62.5825 55.0052 60.7815 56.664C60.6301 56.9442 60.5542 57.2562 60.3042 57.4916C60.1148 58.0413 59.3918 58.1019 59.281 58.6873C58.2897 59.7952 57.86 61.217 56.6559 62.1447C55.773 63.1322 55.3977 64.3279 54.6502 65.3737C54.4225 65.5098 54.2193 65.6761 54.1005 65.9218C53.512 66.263 53.3625 66.9665 53.0271 67.5016C52.4958 67.8842 52.4988 68.4918 52.0277 68.9001C51.7291 69.4188 51.3844 69.893 51.2012 70.4458C50.7462 70.8885 50.7462 71.503 50.5311 72.0244C50.2252 72.407 50.0822 72.8413 50.0458 73.3251C49.7529 73.7406 49.8081 74.3383 49.9189 74.9068C49.8081 75.1264 49.8173 75.5439 49.8081 75.9054L50.0186 76.1347C49.7633 77.0348 50.0519 77.9479 50.3513 78.7341C50.4671 79.0496 50.3985 79.4253 50.7071 79.6607C51.2246 80.7862 52.3796 81.7925 53.3786 82.5596C53.9736 83.0008 54.6502 83.2101 55.3291 83.457C55.2885 83.8139 55.704 83.4888 55.7991 83.7411C56.0026 83.7411 56.3001 83.8568 56.427 83.6391C57.1512 83.6119 57.5901 82.9073 58.3054 82.8651C58.3372 82.6719 58.5715 82.8026 58.7068 82.7654C58.9303 82.9353 59.2354 82.9253 59.4781 83.0633C59.5321 83.0173 59.5651 82.9253 59.6571 82.9587V82.8885C60.0899 82.4139 60.65 82.2541 61.0874 81.786C61.9902 81.1481 62.5108 80.1659 63.1253 79.3134V79.0592C63.3415 78.9803 63.2257 78.7621 63.2583 78.6092C63.4024 78.4658 63.5343 78.309 63.7068 78.2297C64.5617 77.6508 64.7829 76.7725 65.5001 76.1347C65.816 76.2976 65.8589 75.7697 66.1603 75.9054C66.2937 75.4316 66.3577 74.9225 66.6854 74.5269C66.8047 74.096 67.0404 73.7077 67.0538 73.2254C67.29 72.8842 67.6128 72.5829 67.7251 72.2C68.3223 71.5325 68.5884 70.7517 69.0074 70.0206C70.0321 67.903 71.4271 65.9353 72.6423 63.8924C73.1571 63.3779 73.5777 62.8052 73.8943 62.1919C76.0326 59.5019 78.1238 56.6241 80.8667 54.3386C81.9355 53.6965 82.8482 52.6971 83.9672 52.2125C84.5549 51.7966 85.4592 51.861 85.7743 51.036C86.3455 50.668 86.9431 50.3498 87.7302 50.489C88.705 50.3008 89.461 49.5226 90.6049 49.7077C90.7498 49.8944 90.9702 49.9239 91.1496 50.0385C91.2397 49.8078 91.5215 50.0707 91.6043 49.8078C92.0988 49.6625 92.3606 50.0872 92.8494 49.9419C92.9088 49.9906 92.9659 50.0615 93.0518 50.0385C93.2573 49.8239 93.6395 50.0573 93.8289 49.8285L93.8783 49.9419C93.9891 50.0236 94.1267 50.0573 94.2766 50.0385C94.3433 50.2701 94.6017 50.0615 94.7029 50.2329C94.8923 50.1976 94.8378 50.3885 94.8746 50.489C95.3933 50.4457 95.731 50.5553 96.1861 50.6573C96.4644 51.064 97.0291 50.8014 97.409 50.9873C98.1285 51.3051 98.84 51.9269 99.5599 52.2589C100.181 52.5203 100.922 52.4778 101.356 53.1885C104.586 55.0949 107.833 59.0085 109.036 60.8183Z" fill="#009456"/>
<path fill-rule="evenodd" clip-rule="evenodd" d="M101.758 43.9547C102.116 44.2429 102.439 44.6087 102.864 44.7375C104.241 46.6941 106.329 48.3682 107.942 50.2328C108.372 50.9588 108.853 51.6638 109.318 52.3876C109.704 52.2883 109.64 52.8165 109.962 52.8361C110.164 53.3046 110.268 53.8014 110.41 54.2921C110.567 54.3534 110.703 54.4535 110.749 54.6183C110.882 54.6984 111.038 54.7498 111.218 54.7655C111.134 55.0948 111.35 55.3095 111.441 55.5583C111.911 56.2621 112.267 56.9525 112.751 57.6375C112.774 58.0263 113.297 58.8689 113.544 58.7462C113.791 58.6201 113.303 58.3076 113.297 58.0412C112.928 57.4018 113.02 56.5787 112.547 55.9941C112.429 55.4663 111.965 55.0729 111.635 54.6325C111.7 54.4657 111.54 54.373 111.54 54.215C111.257 53.7661 110.882 53.5154 110.603 53.0351C110.78 52.5578 110.197 52.3968 110.228 51.9789C110.108 51.8198 109.946 51.4848 109.773 51.4848C107.795 48.4253 105.699 46.359 102.329 43.4276H102.239L102.133 43.3298C101.829 43.3298 101.479 43.3011 101.254 43.4529C101.526 43.5801 101.473 43.924 101.758 43.9547Z" fill="#009456"/>
<path fill-rule="evenodd" clip-rule="evenodd" d="M78.8144 68.7098C78.7293 68.1493 77.1813 65.7948 77.0011 65.2772C76.8819 65.1044 76.9156 64.859 76.7201 64.7061C76.6377 64.3511 76.1738 64.1494 76.0389 63.8136C76.0255 63.7197 76.1114 63.5284 75.93 63.5541C75.8898 63.3314 75.6398 63.2056 75.5045 63.0293C75.3316 62.943 75.1695 62.7161 75.1514 62.4715C74.9567 62.5018 75.0959 62.2752 74.9333 62.2292C75.0817 61.9471 74.6504 61.8976 74.6941 61.6619C74.5611 61.5453 72.284 58.0388 68.6985 55.6686C68.6652 55.672 67.7057 55.1768 67.6627 55.1702C67.4734 54.8448 66.6921 54.5063 66.3697 54.3296C65.6501 53.6963 64.8233 53.321 63.96 53.0584L63.6115 52.7133C63.4317 52.7329 63.3221 52.5669 63.1733 52.4937C63.0928 52.6133 62.9682 52.6374 62.8705 52.7133C62.6052 52.6528 62.2069 52.8694 62.0536 52.4937C61.6691 52.4178 61.4042 52.0164 60.9169 52.1652C60.8606 52.2123 60.836 52.2921 60.7958 52.3526C60.3979 52.2215 60.0667 52.0697 59.6124 52.0555C59.5104 51.9608 59.4203 51.8731 59.2647 51.9233C59.0427 52.2587 58.8085 51.8163 58.549 51.8389C58.3696 51.7964 58.1488 51.8508 58.0134 51.7009C57.6784 51.9053 57.2076 51.7811 56.799 51.814C56.5368 52.0164 55.92 51.814 55.5937 51.8508C55.3124 51.9865 54.9804 51.9923 54.6503 51.9865C53.9369 52.1893 53.4493 52.0896 52.821 52.4876C52.696 52.312 52.3199 52.4235 52.4039 52.1851C52.2375 52.4419 51.9849 52.4876 51.7422 52.5803C51.3573 52.7467 51.1457 52.3588 50.7444 52.4937C50.5895 52.6528 50.3514 52.5577 50.172 52.6528C50.172 52.9821 49.7868 53.2339 49.541 53.388C48.7314 53.5728 47.4039 52.9119 47.1608 54.0413C46.9546 53.8818 46.633 53.9845 46.3734 53.9581C46.1039 54.2076 45.7597 54.2544 45.5005 54.5063C44.316 54.9847 43.1031 55.4094 42.1313 56.4019C42.0738 56.2931 42.017 56.116 41.8304 56.1788C41.8679 56.372 41.649 56.2294 41.6084 56.3828C41.3331 56.3191 41.4991 56.6277 41.4558 56.7539C41.2967 56.926 41.125 57.0586 40.9119 57.0801C40.7853 57.2127 40.6194 57.3124 40.6903 57.5209C39.9749 58.1308 39.2059 58.6173 38.3783 58.9558C37.6484 59.2679 37.091 59.9786 36.4355 60.447C36.3596 60.8611 36.0617 61.1746 35.7117 61.4131C34.7227 62.3615 33.7563 63.3777 32.7339 64.2579C32.2926 64.7398 31.5451 64.8759 31.3124 65.5134C31.1008 65.8178 30.898 66.1244 30.5959 66.3901C30.2038 66.5641 30.0849 67.0368 29.7652 67.3289C29.3071 67.8629 28.9383 68.4372 28.4572 68.9689C27.0595 69.8544 26.7904 71.499 25.4 72.3834C24.9281 72.9895 24.5892 73.6458 24.0878 74.2365C23.1846 75.2524 22.7595 76.453 22.0986 77.5613V78.1233C21.979 78.3445 21.9092 78.5484 22.0986 78.7945V79.0207L21.979 79.1231V79.6866L22.0986 79.9097V81.0318C22.0296 81.5558 22.5467 81.8452 22.531 82.3409C23.0183 83.0742 23.7991 83.7052 24.4271 84.3753C25.147 84.6743 25.7136 85.3019 26.5489 85.2754C26.8801 85.7577 27.5483 85.451 28.0332 85.5373L28.2383 85.4046C28.624 85.3605 28.8697 84.9864 29.2603 84.9699C29.5034 84.9699 29.8407 84.8633 30.0278 85.0577C30.2329 85.0159 30.6116 85.1796 30.6116 84.8403C31.5616 84.4823 32.4686 83.8137 33.0892 82.9113C33.325 82.6249 33.6934 82.3765 33.6075 81.9575C33.6769 81.882 33.7888 81.8153 33.744 81.6884C33.8069 81.6163 33.8766 81.5558 33.9824 81.583C34.4869 81.2376 34.9052 80.7531 35.2111 80.2512C35.5427 79.8863 36.1875 79.9526 36.3435 79.419C36.3972 78.8141 37.1596 78.502 36.9798 77.8055C37.4989 76.8977 38.4285 76.167 38.8099 75.1953C39.3478 73.9294 40.4009 72.8768 41.1074 71.6788C41.4991 71.2698 41.838 70.8343 42.1313 70.3907L44.5748 67.6172C45.4703 66.5641 46.4762 65.7319 47.466 64.7498C49.1324 63.1688 51.0112 62.1027 52.9904 61.2762C53.2936 60.8181 53.8334 60.9949 54.1259 60.5402C55.4251 60.7848 56.2773 59.9445 57.4959 59.992C59.3057 59.9318 63.5176 60.0963 66.6468 62.2166L66.8926 62.4516C67.4262 62.9108 67.9844 63.2949 68.5525 63.6848C69.0263 63.7323 69.3127 64.2476 69.7731 64.3373C69.8934 64.5259 70.1062 64.6765 70.1296 64.9058L70.7556 65.567L70.8924 65.5824C71.8251 66.3786 72.7486 67.1894 73.6384 68.0899C74.2099 68.7937 75.0134 69.3971 75.1514 70.2807C75.93 70.7296 76.1738 71.5945 76.6994 72.2504C76.6703 72.4742 76.9237 72.5923 77.0559 72.7276C77.0674 73.3786 77.9035 73.6845 78.0603 74.2752C78.0837 74.5052 78.0446 74.7613 78.2961 74.8886C78.4199 75.2186 78.8538 75.2443 79.0145 75.5499C79.2096 75.7201 79.1992 75.9781 79.1931 76.2238C79.7513 77.2661 80.5275 78.2172 80.963 79.3132C81.0029 79.8234 81.3617 80.1918 81.6634 80.597V80.8128C81.8263 80.893 81.6868 81.1015 81.8888 81.1617C81.8555 81.4569 82.1775 81.3235 82.2906 81.4703L82.1188 81.0118C81.8597 80.7611 82.0218 80.3302 81.6408 80.1393C81.6297 80.0147 81.6772 79.8721 81.5725 79.7905C81.4414 78.7945 80.498 78.1401 80.419 77.1166C80.3324 76.9249 80.0108 77.0254 80.0668 76.7474C79.8663 76.5926 79.9931 76.2836 79.9533 76.0509C79.9862 75.6733 79.5446 75.7695 79.4193 75.4529C79.2495 74.823 78.3992 74.4711 78.5157 73.7075C78.3298 73.4617 78.4387 73.0075 78.0304 72.9458C77.9518 72.6621 77.6133 72.4742 77.5597 72.1802C77.0398 71.6083 76.7263 70.3336 76.2862 69.7371C76.129 69.4397 75.7897 69.2169 75.8507 68.837L74.734 67.7245C74.5714 67.7613 74.6075 67.5743 74.6075 67.4819C74.2333 67.1261 73.8841 66.7612 73.6016 66.3621V65.9243C73.4091 65.9216 73.1764 66.3706 73.0373 66.2797C72.7789 66.2962 73.1764 65.4199 73.1239 65.3405C72.3438 65.245 72.4159 64.8299 71.783 64.4013C71.5832 64.0915 70.9683 64.0781 71.1677 63.5771C70.9917 63.4947 71.0899 63.265 70.843 63.3551C70.7556 63.1654 70.6333 63.3053 70.5309 63.3551C70.4746 63.3256 70.4903 63.2719 70.4903 63.2129C70.4202 63.0323 70.1395 63.0887 70.1675 62.8924C69.9617 62.7805 70.1296 62.4516 69.8363 62.4516C69.7999 62.2334 69.2659 62.0901 69.1233 61.9034C68.6652 62.0901 68.6985 61.5292 68.6755 61.2268C68.4563 60.9971 67.2993 60.4697 67.1046 60.227C66.6292 60.3202 66.3175 59.68 65.948 59.4837C65.6398 59.4499 65.2848 59.4438 65.0015 59.5799C64.8631 59.4438 64.6799 59.4063 64.5618 59.2234C64.53 58.8952 64.1397 58.9715 63.9427 58.8094C63.7913 58.7319 63.5413 58.886 63.4317 58.6802L62.6382 58.4084C62.4258 58.2068 62.1099 58.2685 61.8757 58.1017C61.7822 57.9587 61.7201 57.7835 61.5192 57.7529C61.4962 57.6375 60.9388 58.2067 60.9622 58.0822L60.5136 57.5911C60.4209 57.6041 60.3519 57.5738 60.2882 57.529C60.0023 57.5873 59.8865 57.1648 59.6335 57.1368C59.6281 57.2028 59.6572 57.2925 59.6216 57.3511H58.0633L57.9602 57.4216C57.8482 57.5075 57.6784 57.4945 57.6048 57.3511C57.655 57.0724 57.0946 57.4458 57.2467 57.5478C57.1141 57.4608 56.7193 57.5152 56.5644 57.4841C56.1948 57.4274 56.0649 57.6336 55.7076 57.8092C55.6275 57.8521 55.5071 57.8959 55.4619 57.9833C55.4116 58.0891 55.5408 58.2685 55.3745 58.3271C55.3745 58.5219 55.1096 58.4172 55.0049 58.4084V58.3271C54.8477 58.3195 54.6971 58.2723 54.5752 58.1949C53.8671 58.0461 53.396 58.4532 52.7547 58.441C52.4426 58.9286 51.7422 59.052 51.2408 59.2C51.0721 59.2548 50.9729 59.4036 50.7689 59.4438C50.0363 59.6025 49.2716 60.0269 48.6455 60.5068C48.4485 60.6445 48.3396 60.9274 48.1115 60.9876C48.0076 61.0144 47.9011 61.0002 47.8217 61.0336C47.8102 61.0336 47.5434 61.1405 47.5787 61.1463C47.42 61.1141 47.175 61.1528 47.0477 61.2321C46.9308 61.2245 46.8085 61.1858 46.7261 61.0995L46.8085 61.0144C47.0477 60.9876 46.8944 60.6364 46.9408 60.447C47.0286 60.3401 47.185 60.2619 47.2003 60.117C47.489 59.9318 47.466 59.3135 48.0077 59.5343C48.3864 59.4499 48.7801 59.4174 49.0592 59.0911C49.5836 58.9048 49.9761 58.3578 50.4718 58.109C50.7072 57.9921 52.2306 57.6808 52.1148 57.3024C52.3111 57.4017 52.3671 57.1272 52.5565 57.1932C52.6558 57.3427 52.8585 57.3879 52.9076 57.5209C53.0943 57.6011 53.1495 57.3745 53.3167 57.4082C53.396 57.3024 53.5758 57.2223 53.5582 57.0801C53.7514 57.0586 53.9304 57.1035 54.0868 57.1932C54.1163 57.4676 54.2919 57.1326 54.4314 57.1932V57.1272C54.4314 57.0575 54.5081 57.0816 54.5472 57.0801C54.6112 56.4479 55.302 56.8482 55.6838 56.7312C55.6041 56.5787 55.8563 56.5557 55.81 56.4019H56.3643C56.5211 56.5844 56.7963 56.4847 57.0117 56.5089C57.0807 56.3782 57.2203 56.4088 57.3399 56.4019C57.4894 56.2022 57.8107 56.3291 58.0403 56.2931C58.1488 56.3694 58.4163 56.2022 58.4965 56.0569L59.957 56.2061C60.1909 56.4752 60.6402 56.226 60.9169 56.4288C61.7584 56.4322 62.5197 56.6576 63.2293 57.0164L63.6839 57.3427C63.9799 57.4585 64.318 57.4676 64.5618 57.6704C65.8384 57.9507 66.8489 58.886 67.9844 59.4864C68.6219 60.048 69.1693 60.2619 69.7834 60.8438C70.4416 61.4154 71.1014 62.054 71.6166 62.7111C72.8077 63.7178 73.998 64.9058 74.9245 66.1244C75.2852 66.5891 75.4279 66.6627 75.6138 67.0433C75.6613 67.1894 76.0029 68.0197 76.2908 68.0868C76.5545 68.6871 77.0613 69.3542 77.3868 69.9449C77.9978 70.7124 78.3424 71.7685 79.0279 72.4413C79.0279 71.8352 78.3528 70.725 78.1642 69.8728C78.0779 69.6145 77.7092 69.4757 77.795 69.1353C77.2572 68.6304 77.1088 67.9772 76.5664 67.4757C76.6208 67.2933 76.4874 67.1867 76.4656 67.0368C76.2747 66.6922 75.9504 66.4031 75.8898 66.0102C75.59 65.4658 74.9161 65.0779 74.7106 64.4971C73.9404 63.6469 73.4731 62.6774 72.8813 61.7481L72.7222 61.6814C72.1544 61.4027 71.5361 60.4198 71.4732 60.485C71.1577 60.3294 70.9442 59.992 70.6873 59.7463C70.0023 59.2073 69.5641 58.6541 68.894 58.1017C68.794 57.7364 68.3922 57.6942 68.1503 57.4945C67.5128 57.0575 66.7561 56.9659 66.2447 56.2889C65.9913 56.3111 65.7996 56.2436 65.634 56.0772C65.2545 56.0128 64.9965 55.6613 64.6174 55.6057C64.3015 55.3266 63.9128 55.2231 63.5344 55.12C63.2258 54.7888 62.9682 55.2699 62.5856 55.1005C62.4388 54.9847 62.2939 54.8352 62.2464 54.6569C62.1563 54.7834 62.0536 54.7156 61.9715 54.6569C61.5464 54.6788 61.1968 54.5385 60.8955 54.292C60.5627 54.3434 60.1249 54.1076 59.9202 54.4656L59.8692 54.3763L58.9979 54.3637C58.6184 54.0685 58.2132 54.3434 57.7819 54.2487C57.3399 54.3296 56.8523 54.32 56.398 54.397C55.5408 54.3242 54.9727 54.6983 54.0462 54.8179C53.7514 54.854 53.4324 54.7654 53.0805 54.9011C52.6726 54.1912 53.0571 54.4495 53.184 54.1141C53.2994 53.8128 53.133 54.3591 53.1894 54.0413H53.3864C53.8901 54.0413 54.2486 53.6963 54.7251 53.6307C55.2027 53.2339 55.933 53.4114 56.4666 53.1481C56.766 53.3777 57.2544 53.1481 57.5588 53.3409C58.2063 53.3313 58.9664 53.4731 59.5323 53.1745C59.7899 53.1922 60.1613 53.2707 60.4673 53.255V53.3647C60.8955 53.321 61.2773 53.4145 61.6499 53.5498C62.1801 53.6361 62.724 53.7051 63.1622 54.0413C63.6115 53.9416 63.9278 54.1935 64.2881 54.3296C64.4675 54.4373 64.6174 54.6569 64.8401 54.6569C65.2442 55.0533 65.7655 55.1576 66.2612 55.3638C66.4671 55.5294 66.7155 55.6751 66.9547 55.7813C66.8841 55.8208 67.2276 55.8472 67.1632 55.8737C67.187 56.1888 67.5964 56.0976 67.6048 56.4019C67.8904 56.2766 67.9667 56.6239 68.1503 56.7312C68.5095 56.6749 68.6847 56.9658 68.8534 57.2127C69.6972 57.9587 70.0732 58.2186 70.9227 58.9455C71.8033 59.997 73.1178 60.8641 73.8136 62.0008H74.0374C74.6075 62.4052 74.578 63.0488 74.836 63.5771C75.1457 63.5035 75.2496 63.8788 75.5045 63.929C75.554 64.6601 76.5499 65.2834 76.7201 65.9646C77.0256 66.2843 77.7785 67.6383 78.4057 68.7098C78.6257 69.0858 78.8722 69.0728 78.8144 68.7098Z" fill="#009456"/>
</svg>
