<svg width="105" height="70" viewBox="0 0 105 70" fill="none" xmlns="http://www.w3.org/2000/svg">
<path fill-rule="evenodd" clip-rule="evenodd" d="M103.281 20.363C103.282 18.0696 104.37 18.031 104.101 15.7523C103.831 13.4736 104.457 13.4003 104.189 11.1216C103.919 8.84431 103.525 8.88964 103.255 6.6123C102.986 4.33364 104.118 3.43363 102.742 1.59763C102.024 0.640301 101.233 3.42163 100.114 3.84963L100.037 4.10964C100.061 4.06697 100.091 4.02429 100.114 3.98163C100.114 3.98163 104.647 31.423 60.5832 51.943C60.5552 51.9563 60.5165 51.971 60.4858 51.9856C61.3485 52.3523 61.3792 53.079 62.6058 53.2883C64.0512 53.535 64.3578 52.1056 65.8032 52.351C67.2485 52.599 67.2125 52.835 68.6565 53.0923C70.6072 53.4403 70.4218 54.4683 72.3712 54.8256C74.3192 55.183 74.3125 55.2216 76.2618 55.579C78.2098 55.9376 78.2578 55.679 80.2058 56.0363C82.0592 56.3763 82.0058 56.8616 84.1032 56.8763C86.5085 56.891 86.4232 55.7256 88.8045 55.3963C91.1858 55.067 91.1965 55.1483 93.5778 54.819C95.9592 54.4896 96.0205 54.143 98.4245 54.2096C100.951 54.279 101.306 55.5416 103.303 54.2016C104.211 53.5936 103.802 52.6563 103.465 51.6163C103.126 50.5763 102.613 50.575 102.274 49.5336C101.937 48.495 102.594 48.4483 102.257 47.4083C101.919 46.3683 101.855 45.7403 101.789 44.6483C101.705 43.2776 101.167 43.5696 101.358 42.2096C101.55 40.8496 100.774 41.5696 100.966 40.2096C101.156 38.8496 101.382 38.8563 101.574 37.4976C101.766 36.1363 102.574 36.2776 102.774 34.919C103.038 33.1123 101.325 32.8576 101.597 31.0523C101.867 29.247 102.443 29.3336 102.714 27.5283C102.986 25.723 102.63 25.6696 102.901 23.8643C103.173 22.059 103.279 22.1896 103.281 20.363Z" fill="#009777"/>
<path fill-rule="evenodd" clip-rule="evenodd" d="M97.8032 4.50555C96.6845 4.93222 96.1512 3.53621 95.0338 3.96421C93.9152 4.39088 94.2392 5.00155 93.0458 5.08555C91.5845 5.18955 91.4138 4.47756 89.9685 4.23089C88.5232 3.98556 88.6058 5.29356 87.1618 5.04689C85.7165 4.80156 85.7098 5.16956 84.2645 4.92289C82.8192 4.67756 82.9112 4.13221 81.4672 3.87487C79.5165 3.52821 79.5765 3.18955 77.6271 2.83089C75.6778 2.47355 75.4832 3.53356 73.5352 3.17623C71.5858 2.81889 71.7391 1.97755 69.7898 1.62022C67.8418 1.26288 67.9112 0.0135533 65.9298 0.000219932C63.5258 -0.0144467 63.4965 0.70822 61.1152 1.03755C58.7338 1.36822 58.8432 2.15355 56.4622 2.48289C54.0808 2.81355 54.0176 2.35622 51.6361 2.68689C49.2552 3.01622 49.8769 0.566876 47.92 1.96421C46.9622 2.64688 47.2917 4.46688 47.6316 5.59354C47.9713 6.72021 48.2513 6.63487 48.5912 7.76287C48.931 8.88954 48.0931 9.14288 48.4329 10.2695C48.7727 11.3975 49.6973 11.1922 49.7675 12.3682C49.8495 13.7402 49.1445 13.1975 48.9532 14.5589C48.7617 15.9189 48.2976 16.3589 48.1061 17.7202C47.9141 19.0802 48.5704 19.1735 48.3789 20.5335C48.1869 21.8949 48.1341 21.8869 47.9349 23.2455C47.6712 25.0522 48.5736 25.1882 48.3014 26.9922C48.03 28.7976 46.9362 28.4362 46.6648 30.2416C46.3933 32.0456 47.4049 32.3936 47.1328 34.1989C46.8613 36.0042 46.5781 35.8789 46.5762 37.7042C46.5736 39.7456 46.6758 39.8509 46.9024 41.5829C50.9329 36.7682 54.1465 33.5789 54.1465 33.5789C54.1465 33.5789 63.6698 23.0509 87.9298 13.4842C87.9765 13.4669 88.0218 13.4469 88.0685 13.4282C88.0685 13.4282 96.8885 9.88955 100.036 4.10955L100.114 3.84954C98.6698 4.09088 97.8032 4.50555 97.8032 4.50555Z" fill="#FBBA20"/>
<path fill-rule="evenodd" clip-rule="evenodd" d="M32.7592 63.8922C33.8223 61.0455 35.2983 58.1469 36.9779 55.3256C36.8887 55.3256 36.8008 55.3242 36.7116 55.3242C16.4363 55.3242 0 58.4989 0 62.4149C0 66.3322 16.4363 69.5069 36.7116 69.5069C56.9864 69.5069 73.4232 66.3322 73.4232 62.4149C73.4232 59.2802 62.8832 56.6215 48.278 55.6855C47.1172 55.9802 46.3613 56.1642 46.3613 56.1642C38.6811 58.0296 32.7592 63.8922 32.7592 63.8922Z" fill="#005295"/>
</svg>
