<svg width="126" height="70" viewBox="0 0 126 70" fill="none" xmlns="http://www.w3.org/2000/svg">
<path d="M56.7937 62.5994C58.7108 63.9763 60.7504 65.1374 62.8694 66.0827C58.509 68.0263 53.7838 69.0259 48.9222 69.0259C47.7082 69.0259 46.4788 68.9591 45.2774 68.8365C40.8362 68.3646 36.6234 67.081 32.8018 65.0706C35.408 64.4497 37.8652 63.4236 40.161 62.0189C42.5765 60.5334 45.3052 59.7913 48.0312 59.7913C51.1093 59.7913 54.1875 60.7366 56.7937 62.5994Z" fill="#09408A"/>
<path d="M52.4867 0.211093C56.1051 0.588382 59.6023 1.53369 62.8684 2.97881C58.5484 4.89589 54.6335 7.69006 51.3924 11.2277C48.4911 14.4005 44.4397 16.1157 40.2812 16.1157C38.5938 16.1157 36.9065 15.8317 35.2595 15.2512C32.4918 14.2794 29.5751 13.7796 26.5916 13.7796C25.6741 13.7796 24.7413 13.8339 23.8378 13.9286C22.8117 14.0358 21.8121 14.1986 20.8403 14.4284C22.2841 12.3888 23.9728 10.5121 25.862 8.81079C32.1952 3.14031 40.3633 0.00782986 48.8405 0.00782986C50.0434 0.00782986 51.2713 0.0760481 52.4867 0.211093Z" fill="#09408A"/>
<path d="M125.055 42.5231C124.38 48.9635 121.356 54.8901 116.536 59.1976C111.757 63.4773 105.601 65.8398 99.2005 65.8398C98.297 65.8398 97.3642 65.7855 96.4592 65.6909C95.2591 65.5698 94.0841 65.3665 92.9355 65.07C97.0273 62.9232 100.672 59.9396 103.67 56.2405C109.475 49.0707 112.136 40.0797 111.176 30.912C110.541 24.9046 108.368 19.2342 104.897 14.4143C110.596 15.6826 115.672 18.8151 119.399 23.4331C123.773 28.8335 125.785 35.6107 125.055 42.5231Z" fill="#09408A"/>
<path d="M103.67 56.2405C100.672 59.9396 97.0273 62.9231 92.937 65.0699C90.3307 64.449 87.8735 63.4229 85.5652 62.0182C83.1483 60.5341 80.421 59.7906 77.6936 59.7906C74.6154 59.7906 71.5512 60.7359 68.945 62.6001C67.0279 63.977 64.9897 65.1381 62.8693 66.082C60.7504 65.1381 58.7108 63.977 56.7937 62.6001C54.1875 60.7359 51.1107 59.7906 48.0311 59.7906C45.3052 59.7906 42.5765 60.5341 40.161 62.0182C37.8652 63.4229 35.408 64.449 32.8031 65.0699C28.7114 62.9231 25.0666 59.9396 22.0692 56.2405C16.2637 49.072 13.6031 40.0797 14.5624 30.912C15.1833 24.9046 17.3705 19.2466 20.8412 14.4282C21.813 14.1985 22.8126 14.0356 23.8373 13.9284C24.7422 13.8337 25.675 13.7794 26.5925 13.7794C29.576 13.7794 32.4927 14.2792 35.259 15.251C36.9074 15.8315 38.5947 16.1155 40.2821 16.1155C44.4406 16.1155 48.4906 14.4003 51.3933 11.2275C54.6344 7.68987 58.5493 4.8957 62.8693 2.97863C67.1908 4.8957 71.0918 7.68987 74.3328 11.2275C77.2481 14.4003 81.2981 16.1155 85.4566 16.1155C87.13 16.1155 88.8327 15.8315 90.4797 15.251C93.2335 14.2792 96.1641 13.7794 99.1476 13.7794C100.051 13.7794 100.983 13.8337 101.901 13.9284C102.914 14.0356 103.927 14.1985 104.899 14.4143C108.368 19.2341 110.541 24.9046 111.176 30.912C112.136 40.0797 109.475 49.072 103.67 56.2405Z" fill="#0AA4B5"/>
<path d="M32.8023 65.07C31.6551 65.3665 30.4801 65.5698 29.2786 65.6909C28.3597 65.7855 27.4423 65.8398 26.5248 65.8398C20.1387 65.8398 13.9824 63.4773 9.18897 59.1976C4.36913 54.8901 1.34524 48.9634 0.670019 42.5231C-0.720801 29.279 8.13506 17.2767 20.8404 14.4268C17.3696 19.2467 15.1838 24.9046 14.5615 30.912C13.6037 40.0797 16.2628 49.0706 22.0697 56.2405C25.0658 59.9396 28.712 62.9232 32.8023 65.07Z" fill="#80C84B"/>
<path d="M85.5645 62.0189C87.8728 63.4236 90.33 64.4497 92.9363 65.0706C89.1146 67.0824 84.9032 68.3646 80.462 68.8365C79.2452 68.9591 78.0173 69.0259 76.8158 69.0259C71.9556 69.0259 67.2305 68.0277 62.8687 66.0827C64.989 65.1374 67.0272 63.9763 68.9443 62.5994C71.5505 60.7366 74.6147 59.7913 77.6929 59.7913C80.4203 59.7913 83.1476 60.5334 85.5645 62.0189Z" fill="#80C84B"/>
<path d="M104.898 14.414C103.926 14.1982 102.914 14.0353 101.9 13.9281C100.983 13.8334 100.051 13.7791 99.1465 13.7791C96.163 13.7791 93.2338 14.2789 90.4786 15.2507C88.8316 15.8312 87.1303 16.1152 85.4569 16.1152C81.2983 16.1152 77.247 14.4 74.3317 11.2272C71.0906 7.69096 67.1897 4.8954 62.8696 2.97832C66.1358 1.53321 69.633 0.589286 73.2514 0.210604C74.4528 0.0755598 75.6822 0.00734157 76.8976 0.00734157C85.3747 0.00734157 93.5303 3.13982 99.876 8.8103C101.765 10.4977 103.44 12.3883 104.898 14.414Z" fill="#80C84B"/>
<path d="M41.8547 47.0312C39.1844 47.0312 37.0195 44.8664 37.0195 42.1961V32.1276C37.0195 29.4574 39.1844 27.2925 41.8547 27.2925C44.5249 27.2925 46.6898 29.4574 46.6898 32.1276V42.1961C46.6898 44.8664 44.5249 47.0312 41.8547 47.0312Z" fill="white"/>
<path d="M41.8549 43.9746C40.2525 43.9746 38.9521 42.6743 38.9521 41.0718V33.2518C38.9521 31.648 40.2525 30.349 41.8549 30.349C43.4587 30.349 44.7577 31.648 44.7577 33.2518V41.0718C44.7577 42.6743 43.4587 43.9746 41.8549 43.9746Z" fill="#09408A"/>
<path d="M62.8693 47.0312C60.1991 47.0312 58.0342 44.8664 58.0342 42.1961V32.1276C58.0342 29.4574 60.1991 27.2925 62.8693 27.2925C65.5396 27.2925 67.7045 29.4574 67.7045 32.1276V42.1961C67.7045 44.8664 65.5396 47.0312 62.8693 47.0312Z" fill="white"/>
<path d="M62.8691 43.9746C61.2652 43.9746 59.9663 42.6743 59.9663 41.0718V33.2518C59.9663 31.648 61.2652 30.349 62.8691 30.349C64.4729 30.349 65.7718 31.648 65.7718 33.2518V41.0718C65.7718 42.6743 64.4729 43.9746 62.8691 43.9746Z" fill="#09408A"/>
</svg>
