<svg width="151" height="163" viewBox="0 0 151 163" fill="none" xmlns="http://www.w3.org/2000/svg">
<path d="M90.3555 21.6706C90.6628 22.1517 91.0664 22.584 91.112 23.0697C91.5781 24.4844 92.8854 25.3307 93.0443 26.7786C93.1003 27.2565 93.724 27.446 94.0482 27.6608C94.3998 28.1087 94.1563 28.6224 94.836 29.2871C95.1589 29.4974 94.9127 30.0085 94.9701 30.4922C95.2891 30.7018 95.6263 30.9167 95.9466 31.1263C98.8828 35.7175 99.1641 41.0449 95.763 45.9837C95.2201 46.5208 94.7031 47.2982 94.4779 48.0475C94.2018 48.3216 93.6289 48.6152 93.3555 48.8867C93.4088 49.3724 93.7318 49.582 94.0847 50.0352C92.6159 50.416 92.4505 51.6439 91.3281 52.4876C91.0339 52.5084 90.4297 52.5723 90.1302 52.5977C89.3073 53.401 88.4323 53.7285 87.586 54.2936C87.3177 54.5644 87.3893 55.2884 87.4193 55.5286C86.0313 56.6282 83.9818 57.3086 81.8516 57.2676C81.5521 57.2988 81.332 58.043 81.03 58.0736C79.5287 58.2116 77.7031 58.1425 76.2018 58.2832C75.5781 58.099 75.2266 57.6465 74.5925 57.4544C73.9974 57.5188 73.3985 57.5696 72.7669 57.3906C71.7917 56.7487 70.5651 56.6231 69.6055 56.2272C68.9844 56.0352 67.8334 56.6283 67.181 56.2117C65.168 54.4448 63.1576 52.6973 62.0449 50.8484C61.3112 49.7026 60.058 49.3367 59.6205 48.1602C59.5717 47.6746 59.7995 46.9304 59.1628 46.7462C57.9095 46.3751 58.431 45.5951 58.3548 44.8738C57.9759 44.1804 57.9147 43.7 57.2422 43.0294C56.8581 42.3367 57.3522 41.3132 56.9479 40.3848C56.9226 40.142 57.1986 39.8686 57.1732 39.6283C56.7097 38.2136 57.457 36.6895 57.319 35.4819C57.2344 34.7611 57.4336 33.7657 57.6537 33.019C58.3906 31.4845 59.1068 29.7169 60.4518 28.1316C60.4212 27.8966 60.3698 27.4181 60.3444 27.1674C60.6178 26.8959 60.9173 26.8757 61.1855 26.5997C61.6562 25.3464 62.1497 24.323 62.9427 23.2768C64.0091 21.9623 65.7083 20.8269 67.0755 19.4819C67.8919 18.6785 69.0455 18.0854 69.8073 16.7911C70.0833 16.5248 71.0403 16.9214 71.3164 16.6557C72.1302 15.8471 73.3633 15.9773 74.2096 15.4096C75.0508 14.8471 74.8815 16.0724 75.7565 15.7501C76.3607 15.6909 76.6263 15.4278 77.2044 15.1257C78.0742 14.8061 79.0586 15.4356 79.987 15.6016C80.8841 15.5099 81.8125 15.6732 82.7929 16.3048C84.095 17.157 87.1042 16.8731 87.5859 18.5352C88.3177 19.6785 89.6211 20.5326 90.3555 21.6706Z" fill="#BE1135"/>
<path d="M141.15 40.7149C141.115 39.9629 141.15 39.5052 140.85 38.7175C140.767 37.9655 141.359 37.127 141.104 36.1009C140.93 35.8249 140.552 35.4974 140.598 35.267C141.104 33.6843 141.145 32.2364 141.017 30.515C140.889 29.9987 140.72 29.7194 140.552 29.4382C140.59 29.2084 140.68 28.7403 140.764 28.2748C140.802 26.8321 140.337 25.7631 139.913 24.4512C139.784 23.9473 139.401 23.6172 139.319 22.8731C139.147 22.597 138.767 22.2618 138.802 22.0339C139.186 19.9317 138.163 18.2539 137.863 16.2539C137.396 13.9727 135.234 12.5326 134.551 10.2025C134.587 9.96487 135.298 10.0671 135.508 10.1127C137.208 11.696 139.083 13.558 139.544 15.8418C139.845 16.6374 139.718 17.3334 140.065 17.8985C141.503 19.6608 141.759 21.8985 142.02 24.1315C141.979 24.3692 142.439 24.2259 142.611 24.515C142.566 24.7403 142.486 25.2084 142.654 25.4896C143.757 26.6966 143.081 27.9987 143.296 29.2618C143.426 29.7735 143.59 30.0521 143.757 30.3262C143.717 30.5664 143.168 31.1752 143.125 31.405C144.02 32.5665 144.398 34.1088 144.15 35.5026C145.171 35.9733 144.701 37.3184 144.956 38.3444C145.12 38.6257 145.34 38.6713 145.555 38.7175C145.846 38.3008 146.142 37.8809 146.229 37.4108C146.357 35.5026 146.444 33.8223 146.096 32.0573C145.805 31.2644 145.708 30.5176 146.263 29.9141C145.841 29.8224 145.708 29.3028 145.544 29.0267C144.78 25.9499 144.46 22.5046 143.547 19.3614C143.547 19.3614 143.8 19.1745 143.855 18.9447C143.531 16.1947 141.431 13.6016 140.439 10.8262C140.28 10.3301 139.473 9.73702 139.094 9.20251C139.094 9.20251 139.12 8.96944 139.15 8.73441C140.224 8.88545 141.043 9.92127 141.605 10.722C142.725 12.3125 144.02 14.0775 144.359 15.847C144.956 17.4278 145.831 19.1003 146.186 20.6452C146.419 21.6706 147.171 22.3438 147.662 23.198C147.943 23.9981 147.797 24.6915 147.871 25.4382C148.173 27.2155 148.72 28.9369 149.048 30.7149C149.478 32.0137 149.654 33.5053 149.224 34.625C148.637 36.6739 149.995 38.9121 150.547 40.7279C150.844 41.5235 150.465 42.4056 150.13 43.0606C150.086 43.2904 150.465 43.6205 150.419 43.8483C150.035 44.7331 150.337 45.5287 150.163 46.4642C149.915 46.6459 150.465 47.2474 150.171 47.6641C149.916 47.8562 149.706 47.8099 149.447 48.002C149.107 48.6485 149.406 49.4441 149.279 50.14C148.598 51.4415 148.94 53.2142 147.664 54.1452C147.197 54.2832 147.153 54.5183 146.9 54.7077C147.11 54.7513 147.287 55.0326 147.452 55.3138C147.197 55.4955 146.982 55.4493 146.731 55.6387C146.649 56.099 147.55 56.6745 147.723 56.9506C147.375 58.8177 145.982 60.4473 146.025 62.6361C145.938 63.1042 145.81 63.8054 145.733 64.2683C145.304 65.3887 144.495 66.1836 144.071 67.2989C143.99 67.7592 143.099 67.8132 143.012 68.2761C142.457 68.8796 142.511 69.8568 142.12 70.7442C141.826 71.1634 141.184 71.0306 140.68 71.3965C140.086 72.2351 140.168 72.9792 139.789 73.8672C139.15 74.9388 138.373 76.0892 137.741 77.1609C137.022 78.7012 135.797 80.1843 134.49 81.3484C134.275 81.3048 133.805 81.4401 133.554 81.6322C132.877 82.9336 132.099 83.9161 130.659 84.5658C130.439 84.5247 130.127 85.5371 129.871 85.724C128.874 86.4655 128.301 87.3047 127.097 88.0079C126.643 88.1465 126.392 88.3327 125.89 87.4916C124.318 90.295 122.206 92.4838 119.917 94.3946C118.72 95.0951 117.508 95.0163 116.71 95.8015C114.111 98.3718 109.968 101.091 109.492 101.471C109.292 101.418 108.5 102.612 108.5 102.612C107.653 102.686 108.137 102.763 107.358 102.584C107.358 102.584 107.323 103.896 106.265 104.111C104.024 104.556 103.435 107.16 103.257 108.236C103.167 108.771 102.801 108.405 102.541 108.625C102.287 108.84 102.453 109.152 102.198 109.38C101.225 109.981 100.382 111.178 99.5731 112.096C99.3205 112.311 99.1539 111.988 98.8987 112.208C98.6422 112.423 97.4534 113.904 97.0237 115.199C96.0028 117.467 94.883 119.5 93.4807 121.104C93.1383 121.495 94.2737 123.012 94.1903 123.523C93.8648 124.245 93.2203 124.362 92.9026 125.078C92.607 126.861 92.525 128.843 92.2229 130.728C91.7138 132.57 92.3428 133.876 92.5914 135.516C92.8726 136.897 92.5198 138.682 92.5914 140.023C92.6878 141.104 93.4247 142.288 93.3101 143.34C93.3479 144.951 92.9768 144.734 93.3235 146.089C93.2819 146.885 93.0214 147.66 93.1997 148.202C93.1385 149.268 92.9706 149.923 92.9107 150.984C92.6841 151.235 92.2232 151.739 92.2102 152C92.0513 154.647 90.3156 156.985 88.4992 158.721C87.3742 159.445 86.3963 160.548 85.1125 160.456C84.4732 160.417 82.3117 161.778 81.5981 161.947C79.6906 162.489 78.1711 162.499 76.3481 162.248C74.3325 161.699 72.7388 161.192 71.3481 159.136C70.5291 158.212 69.1073 158.558 68.5747 157.146C68.4146 156.591 67.2531 156.3 67.0565 156.005C66.007 155.057 65.4445 153.911 64.6568 152.729C64.1203 151.325 64.5083 150.361 63.8742 148.997C63.2088 148.158 62.9224 147.568 62.2629 146.726C61.3885 145.616 62.4706 144.018 61.8234 142.918C61.3703 142.629 60.9328 142.068 60.7231 141.522C60.3039 140.432 60.4009 138.856 59.7492 137.705C59.3983 136.324 59.6209 131.331 59.8872 129.986C59.9405 129.718 59.1633 129.337 59.2095 129.061C59.317 127.124 59.9868 125.242 59.8332 123.247C60.0428 122.171 59.9406 121.311 60.9126 120.393C60.9126 120.393 60.4523 120.02 60.4986 119.751C61.0611 118.186 61.061 116.986 61.3677 115.367C61.4191 115.096 61.9868 114.93 62.0408 114.663C61.7258 113.477 61.7108 111.07 61.9153 109.991C62.0175 109.449 63.412 108.646 63.731 108.16C63.7766 107.894 63.5344 107.203 64.0539 106.272C64.1893 106.044 64.5552 106.113 64.8235 105.898C64.8639 105.628 64.688 105.305 64.7336 105.035C64.8664 104.231 66.2349 103.645 66.3247 103.108C66.8664 101.277 67.787 100.512 68.7466 99.0215C69.0969 98.3718 69.2297 97.6706 69.7948 97.0645C70.0539 96.8829 70.1815 97.0618 70.2219 96.8243C70.2661 96.5938 70.1412 96.0749 70.1815 95.847C70.7192 95.2409 71.4653 94.6836 71.5929 93.9825C71.9666 93.0951 72.2961 92.4427 72.8416 91.834C73.8286 91.0925 74.826 90.3457 75.4445 89.2741C75.9875 88.6628 76.6059 88.8086 77.1515 88.2025C77.9341 87.4069 78.1437 86.2461 78.727 85.4095C80.0942 83.7676 81.5838 82.6524 83.0825 81.5345C84.3195 80.5983 85.9002 80.2279 87.1046 79.5267C88.3455 78.5957 89.0981 76.8288 90.2947 76.1257C91.0369 75.5651 91.9158 75.5189 92.658 74.9564C93.4093 74.4017 94.0291 73.3275 95.1489 73.0918C97.6268 72.4349 95.8546 73.1433 98.175 72.2097C99.6255 71.3223 99.0265 71.0788 100.469 70.1888C102.881 68.7878 104.135 67.8978 104.334 67.9408C104.584 67.7592 104.833 67.5704 104.92 67.1101C105.497 66.2631 108.579 64.1068 109.037 63.9636C109.493 63.823 110.029 64.4291 110.567 63.823C110.862 63.4037 110.273 63.0326 110.567 62.6133C111.352 61.8204 112.111 60.7539 112.878 60.194C113.135 60.0072 113.727 60.3757 114.193 60.2351C114.446 60.0535 114.53 59.5828 114.79 59.4012C115.084 58.9819 114.53 58.3784 114.827 57.9532C115.167 57.3042 115.503 56.6544 115.978 56.5138C116.7 56.1837 117.668 55.6746 117.543 55.1655C117.713 54.2319 118.096 53.3445 119.073 52.8328C119.114 52.603 119.163 52.3601 119.201 52.1349C119.748 51.5236 120.26 51.1577 120.812 50.5516C121.408 49.7078 121.15 48.6844 121.493 48.0353C122.593 46.8224 123.657 45.8458 123.954 44.2137C123.866 43.4669 123.4 42.3953 123.739 41.7384C124.029 41.3263 124.965 41.045 125.055 40.5769C125.222 39.6486 124.756 38.5717 124.715 37.5945C124.832 36.8992 125.603 36.3413 125.516 35.5893C125.437 33.6329 125.559 31.7221 125.265 29.7195C125.938 29.6303 126.023 29.1596 126.111 28.6993C125.938 27.2058 125.089 25.8094 124.707 24.2723C124.665 23.2924 125.461 22.4969 125.421 21.5203C125.336 20.7781 124.623 19.8907 123.848 19.2364C123.129 18.3484 123.599 17.0034 123.344 15.9799C123.129 14.7247 122.193 13.7859 122.023 12.297C121.938 11.5528 121.047 11.5991 120.748 10.8061C120.49 9.78332 120.239 8.75208 120.239 7.54244C120.111 7.03137 119.431 7.12577 119.047 6.79569C118.193 5.39921 118.495 2.55807 116.625 1.90832C116.792 0.979934 115.944 0.787877 115.641 0.00011723C116.753 0.00011723 117.763 0.46561 118.408 1.81848C118.577 2.09452 119.217 2.23774 119.426 2.27876C119.984 2.88488 119.941 4.33019 120.533 4.7065C121.293 5.35558 122.447 5.12576 122.739 5.91874C123.166 7.213 124.148 7.91613 124.612 8.98775C124.572 9.22539 124.7 9.73449 124.864 10.0157C125.633 10.6655 125.718 11.4096 126.267 12.0157C127.541 13.5073 128.823 15.0034 128.224 17.0496C127.851 17.9344 128.986 17.7013 129.334 18.254C130.185 19.6609 129.838 21.5203 130.946 22.7299C130.736 25.1108 131.887 27.3003 132.609 29.3927C131.375 31.3055 132.066 34.6512 133.041 36.5613C133.041 36.5613 133.718 36.4748 133.769 36.2364C133.974 35.073 136.097 34.6844 135.752 34.1264C135.327 32.8172 134.685 30.0932 134.685 28.8836C134.816 26.9728 134.892 25.295 134.598 23.2924C134.429 23.0086 134.256 22.7299 134.089 22.4513C133.834 21.4278 133.58 20.3972 133.79 19.2364C133.662 18.7247 133.28 18.4025 133.155 17.8907C133.198 17.6505 133.28 17.1902 133.325 16.9571C133.79 16.8139 134.389 17.1902 134.813 17.2846C135.196 17.6069 134.848 18.254 135.02 18.5379C135.7 19.6609 136.726 20.1238 136.93 21.3849C136.895 21.6121 136.803 22.075 136.771 22.3178C136.941 23.8042 137.831 24.9676 138.046 26.2286C138.132 26.9728 137.493 28.0398 137.795 28.84C138.767 30.7456 138.81 32.935 138.649 35.0782C138.471 36.0092 139.657 36.756 139.32 37.4083C138.987 38.06 139.412 38.1499 139.063 38.8094C139.025 39.0424 138.562 39.1726 138.519 39.4135C139.153 40.7664 138.189 42.8146 137.98 43.976C137.938 44.2091 138.702 44.4571 138.864 43.6023C138.954 43.0835 139.836 43.0913 140.301 42.9532C140.816 42.577 141.191 41.6921 141.15 40.7149ZM145.723 45.3699C145.767 44.1857 146.322 43.3237 146.107 42.0633C145.688 40.7612 144.723 42.0553 144.041 42.1525C144.425 43.6844 143.795 44.7534 143.32 46.1036C143.028 46.5262 142.81 47.6948 143.491 47.5978C144.558 47.8328 145.693 46.8152 145.723 45.3699ZM143.908 51.7488C144.168 51.3803 144.046 50.6336 143.667 50.3035C143.073 49.9305 142.306 50.4904 141.964 51.1453C141.624 51.795 141.879 52.8204 142.782 52.769C142.993 52.8205 143.606 52.1759 143.908 51.7488Z" fill="#2E86D0"/>
<path d="M41.97 48.9018C42.175 49.0711 42.4739 49.3367 42.6405 49.5411C42.983 49.769 43.3385 49.797 43.7069 49.6335C44.052 49.6588 44.369 50.5697 44.7271 50.5951C45.2388 50.8327 45.5611 51.7435 46.0624 52.1758C46.4003 52.3985 46.7584 52.7233 47.0982 52.9505C47.5767 53.5775 47.899 54.1836 48.4003 54.6205C48.7278 55.0378 49.2649 54.8893 49.6249 54.9147C50.3183 55.1654 50.5943 56.1654 51.0858 56.7923C51.2649 56.8073 51.5741 57.4213 51.5663 57.6133C51.9016 57.8334 52.2317 58.25 52.7479 58.4903C52.9016 58.6999 52.886 59.0892 53.0344 59.3015C54.3183 61.36 56.0012 62.6699 57.0858 64.9076C57.0858 64.9076 57.2291 65.3119 57.2186 65.5111C58.5435 66.7897 59.1269 68.5957 60.2675 70.0586C60.5793 70.6699 60.8658 71.6699 61.1522 72.4733C61.4849 72.8952 61.8228 73.1153 62.1451 73.5319C62.6151 74.3555 63.0806 75.3731 63.1835 76.3555C63.1575 76.7468 62.897 77.8978 62.2265 77.2559C61.3977 76.4069 61.4849 75.2455 60.6457 74.5853C60.6665 74.3939 60.4335 73.8848 60.2675 73.683C59.9296 73.2761 59.3163 73.2989 59.1783 72.711C59.2212 72.125 58.5689 71.6498 58.2265 71.2403C57.3853 70.0332 56.1653 69.5853 55.1496 68.3679C54.968 68.3599 54.7838 68.3503 54.6047 68.5371C54.4159 68.9154 53.858 69.4779 54.3645 70.084C55.0552 70.5085 55.3827 71.3041 56.2519 71.7363C56.774 72.1511 56.9016 73.3275 57.2186 74.3171C57.5565 74.7214 57.9016 75.1302 58.4257 75.3529C58.94 75.7624 58.7356 76.3887 59.2213 77.013C59.2063 77.2123 59.0194 77.3861 58.994 77.5781C59.3163 78.1921 60.0325 78.0567 60.5233 78.683C60.9042 78.3249 61.4263 78.6087 61.7408 79.1712C61.1575 79.7188 61.3111 80.1153 61.0884 80.6934C60.4875 81.614 61.8456 82.5065 62.6978 82.9642C63.2395 83.0105 63.1575 83.9824 63.6614 84.4095C63.9765 85.0261 64.8554 85.0951 65.3319 85.9186C65.4882 86.3249 65.1171 86.4889 64.9127 86.862C64.8632 87.4531 65.5572 87.6986 65.897 87.9186C66.2369 88.1465 66.3853 88.5554 66.5338 88.9544C65.9869 89.1003 64.9374 88.3789 64.414 88.3275C64.0728 88.1797 63.4387 87.4095 62.7538 87.2611C62.5207 87.2103 62.3619 87.7728 62.1067 87.7194C61.787 87.6654 61.4361 87.5964 61.0884 87.5274C60.7128 87.461 59.8176 86.4733 59.4237 86.4095C58.9784 86.3327 58.4413 87.1465 58.009 87.0768C56.4107 86.7982 56.3495 86.6908 55.843 86.4811C55.2492 86.2461 54.6867 85.9668 54.1601 85.6706C53.8098 85.4811 53.9068 85.0182 53.5871 84.8164C53.2597 84.6016 52.5637 84.6061 52.2388 84.4017C50.9576 83.6218 49.7505 81.847 48.6607 81.2793C47.9322 80.9056 47.3261 80.5371 46.5305 80.1485C46.134 79.9004 45.858 79.3633 45.3645 79.1973C43.8632 78.6934 42.6555 77.7415 40.942 77.2559C37.6939 76.3379 35.0031 78.1921 32.3586 79.5606C32.2206 79.5526 31.9393 79.5371 31.7961 79.6322C31.1874 80.1485 30.466 80.4323 29.8729 80.834C29.0494 81.4864 27.9081 81.6576 27.0031 82.1843C26.7167 82.3529 26.6913 82.8776 26.4068 83.0488C25.9752 83.2995 25.2128 83.3509 24.7909 83.6166C24.3996 83.8646 24.356 84.3171 23.9771 84.5938C23.2251 85.2025 22.481 85.7064 21.4556 86.1869C20.8723 86.4811 16.0051 87.3151 15.1946 87.3249C13.9387 87.3457 13.0715 88.3867 11.1965 88.3789C8.35535 88.3613 5.509 88.3047 3.14311 86.5475C2.64181 86.11 2.54675 84.931 2.20951 84.709C1.19649 84.041 1.2883 82.683 1.00185 81.6752C0.675025 81.4577 -0.0411219 81.3991 0.00185144 80.8132C0.395731 77.9134 1.83322 75.2865 3.58518 73.2813C3.99729 72.5293 4.91005 72.2123 4.97907 71.2403C4.97907 71.2403 6.56239 69.0228 7.52136 68.1276C7.7284 67.7494 7.41911 67.1328 7.62097 66.7617C9.07411 63.946 11.7134 62.0098 13.8566 59.4473C14.4296 58.9102 14.8417 58.1556 15.7395 58.0352C16.1021 58.0605 16.4504 58.0892 16.6548 57.7181C17.0767 56.7741 17.8313 56.25 18.399 55.9024C20.4504 54.5007 22.1796 52.3907 24.5272 51.9994C24.8931 51.8281 25.1001 51.4597 25.4712 51.2884C25.8547 50.9304 26.5324 51.3725 26.9009 51.209C28.6451 50.4212 30.2382 48.7305 32.0363 48.485C32.4022 48.3236 32.6119 47.9479 32.7883 47.9558C34.3794 48.0912 36.2616 46.6843 37.7577 48.1706C39.1053 47.8965 41.1262 48.18 41.97 48.9018ZM54.1704 65.9766C54.1854 65.78 54.1906 65.5879 54.1906 65.3959C53.4998 64.9714 53.188 63.7819 52.3104 63.5469C52.1365 63.5362 51.7733 63.7207 51.7661 63.9128C51.7173 65.0814 52.2212 65.8848 52.7095 66.8796C52.9191 66.112 53.4542 66.138 53.7863 66.739C53.9653 66.5547 54.1626 66.1739 54.1704 65.9766Z" fill="#359A3E"/>
</svg>
