<svg width="149" height="94" viewBox="0 0 149 94" fill="none" xmlns="http://www.w3.org/2000/svg">
<path d="M107.986 59.2278C78.132 57.5303 68.2832 48.6931 68.2832 48.6931C68.2832 48.6931 80.4718 54.9808 102.729 54.3002C102.729 54.3002 130.304 53.8504 141.125 39.0188C141.125 39.0188 157.314 46.8132 143.214 53.9065C143.214 53.9065 129.957 60.6079 107.986 59.2278Z" fill="#0A50A1"/>
<path d="M53.5324 33.8529C53.5324 33.8529 42.0592 48.6302 63.9465 59.0607C63.9465 59.0607 79.767 69.8966 119.717 68.8428L83.4442 91.8462C83.4442 91.8462 78.5078 94.1627 74.5653 93.9909H74.3605C70.4183 94.1627 65.4808 91.8462 65.4808 91.8462L3.73552 52.6911C1.26676 51.124 0.0227796 49.0689 0 47.007V46.9927C0.0227796 44.933 1.26676 42.8755 3.73552 41.3107C3.73552 41.3107 12.4389 35.5905 14.8324 34.7374C14.8324 34.7374 23.556 32.2863 34.9387 31.9664C34.9387 31.9664 45.2635 31.476 53.5324 33.8529Z" fill="#0A50A1"/>
<path d="M64.38 27.9302C64.38 27.9302 68.7883 28.2199 71.9615 29.3783C71.9615 29.3783 73.8429 29.4944 73.784 31.464C73.784 31.464 73.4907 33.2018 71.9615 32.9701C71.9615 32.9701 69.7286 32.8549 69.1402 35.2871C69.1402 35.2871 68.2004 37.9519 70.8455 39.1677C70.8455 39.1677 80.1623 47.2486 101.146 46.9882C101.146 46.9882 115.959 47.6549 124.424 38.966C124.424 38.966 128.278 33.3737 123.633 27.7243L83.3307 2.15347C83.3307 2.15347 78.3979 -0.164247 74.4597 0.00927928H74.2551C70.3166 -0.164247 65.3838 2.15347 65.3838 2.15347L22.1699 29.5726C27.6015 28.0721 40.3227 25.8527 64.38 27.9302Z" fill="#0A50A1"/>
</svg>
