<svg width="152" height="145" viewBox="0 0 152 145" fill="none" xmlns="http://www.w3.org/2000/svg">
<path d="M149.397 67.7066L114.517 34.2239C108.769 41.2119 103.153 48.5412 103.153 48.5412C95.8518 59.1892 88.2464 61.3199 88.2464 61.3199C73.9491 64.3612 62.0824 61.3199 62.0824 61.3199C70.6518 59.6599 96.0438 26.8612 100.617 20.8799L80.9438 1.99324C80.9438 1.99324 76.9904 -2.87342 71.5144 2.60258L38.6571 32.1119C38.6571 32.1119 48.0878 31.8079 51.7371 33.3306C51.7371 33.3306 57.6198 35.1559 60.8664 39.7186C60.8664 39.7186 65.4291 48.5412 69.0811 48.5412C69.0811 48.5412 71.5144 53.7132 59.3424 54.0172C59.3424 54.0172 51.7371 53.4079 48.9998 44.5879C48.9998 44.5879 46.8704 34.8492 36.5291 33.9399L1.53844 68.3186C1.53844 68.3186 -1.19756 70.6506 0.62777 72.2732H89.1584C89.1584 72.2732 91.5918 62.2319 97.3731 69.2292C97.3731 69.2292 100.416 63.7532 104.068 68.6199C104.068 68.6199 106.194 58.2759 113.498 65.8839C113.498 65.8839 117.757 54.6252 123.233 60.1026C123.233 60.1026 126.58 61.3199 127.796 68.0119C127.796 68.0119 132.968 60.7092 135.706 72.2732C135.706 72.2732 69.9918 73.4892 22.8371 96.3039L40.4811 113.647C40.4811 113.647 102.545 82.9199 140.573 75.9226C140.573 75.9226 93.1131 93.8706 56.6064 128.857L70.2971 142.244C70.2971 142.244 75.1651 148.023 81.8571 141.636L150.309 76.2266C150.309 76.2266 153.96 70.4452 149.397 67.7066Z" fill="#254AA5"/>
<path d="M101.543 19.9565C117.059 2.0045 145.543 12.0472 145.543 12.0472C139.763 12.3512 126.073 22.0845 126.073 22.0845C126.073 22.0845 119.683 27.7525 114.815 34.1392L100.706 20.9418L101.543 19.9565Z" fill="#254AA5"/>
</svg>
